<svg width="22" height="22" viewBox="0 0 22 22" fill="none" xmlns="http://www.w3.org/2000/svg">
<path fill-rule="evenodd" clip-rule="evenodd" d="M16.04 13.1836C15.7663 13.0473 14.4207 12.3884 14.1698 12.2974C13.9189 12.2065 13.7365 12.1611 13.554 12.4338C13.3715 12.7064 12.847 13.32 12.6873 13.5018C12.5277 13.6836 12.368 13.7064 12.0943 13.57C11.8206 13.4336 10.9387 13.146 9.89329 12.218C9.07964 11.4957 8.53031 10.6037 8.37069 10.331C8.211 10.0583 8.3536 9.91089 8.49064 9.77509C8.61382 9.65301 8.76442 9.45691 8.90123 9.29782C9.03808 9.13881 9.0837 9.02512 9.17493 8.84345C9.26616 8.66158 9.22055 8.50257 9.15208 8.36625C9.0837 8.2299 8.5363 6.88909 8.30822 6.34364C8.08604 5.81254 7.8604 5.88448 7.6924 5.87605C7.53294 5.86818 7.35027 5.86649 7.16785 5.86649C6.98538 5.86649 6.68883 5.93466 6.4379 6.20729C6.18709 6.47999 5.48 7.13905 5.48 8.47971C5.48 9.82057 6.46071 11.1158 6.5976 11.2975C6.73449 11.4794 8.52755 14.2307 11.2733 15.4106C11.9263 15.6913 12.4361 15.8588 12.8336 15.9844C13.4892 16.1917 14.0859 16.1624 14.5575 16.0923C15.0834 16.0142 16.1769 15.4334 16.4049 14.7972C16.633 14.1608 16.633 13.6154 16.5646 13.5018C16.4962 13.3882 16.3137 13.32 16.04 13.1836ZM11.046 19.9699H11.0423C9.40861 19.9692 7.80624 19.5324 6.40836 18.7069L6.07589 18.5105L2.63004 19.4101L3.54977 16.0664L3.33335 15.7236C2.42196 14.281 1.94059 12.6136 1.9413 10.9015C1.94331 5.90569 6.02763 1.84122 11.0496 1.84122C13.4815 1.84208 15.7674 2.7858 17.4864 4.49854C19.2053 6.21117 20.1514 8.48771 20.1505 10.9088C20.1484 15.905 16.0642 19.9699 11.046 19.9699ZM18.7946 3.19709C16.7265 1.13649 13.9762 0.00117612 11.0459 0C5.0082 0 0.0942267 4.89015 0.0917844 10.9008C0.0909965 12.8222 0.595377 14.6976 1.55395 16.3509L0 22L5.80684 20.4841C7.40684 21.3525 9.20822 21.8103 11.0415 21.8109H11.0461C17.0831 21.8109 21.9975 16.9203 22 10.9095C22.0011 7.99664 20.8627 5.25765 18.7946 3.19709Z" fill="#212121"/>
</svg>
