<svg width="26" height="18" viewBox="0 0 26 18" fill="none" xmlns="http://www.w3.org/2000/svg">
<path d="M23.5625 0H2.4375C1.79103 0 1.17105 0.237053 0.713927 0.65901C0.256807 1.08097 0 1.65326 0 2.25L0 15.75C0 16.3467 0.256807 16.919 0.713927 17.341C1.17105 17.7629 1.79103 18 2.4375 18H23.5625C24.209 18 24.829 17.7629 25.2861 17.341C25.7432 16.919 26 16.3467 26 15.75V2.25C26 1.65326 25.7432 1.08097 25.2861 0.65901C24.829 0.237053 24.209 0 23.5625 0ZM22.9775 1.5L13 8.0775L3.0225 1.5H22.9775ZM24.375 15.75C24.375 15.9489 24.2894 16.1397 24.137 16.2803C23.9847 16.421 23.778 16.5 23.5625 16.5H2.4375C2.22201 16.5 2.01535 16.421 1.86298 16.2803C1.7106 16.1397 1.625 15.9489 1.625 15.75V2.4225L12.5288 9.6075C12.6664 9.69794 12.8311 9.74654 13 9.74654C13.1689 9.74654 13.3336 9.69794 13.4712 9.6075L24.375 2.4225V15.75Z" fill="#212121"/>
</svg>
