<?xml version="1.0" encoding="UTF-8"?>
<svg id="Capa_1" data-name="Capa 1" xmlns="http://www.w3.org/2000/svg" viewBox="0 0 113.39 34.02">
  <defs>
    <style>
      .cls-1 {
        fill: #999595;
      }
    </style>
  </defs>
  <path class="cls-1" d="M71.61,22.4v8.57l-7.1-8.57h-1.22v10.55c.27.2.98.21,1.26,0v-8.36c.16.09.3.25.42.38,2.14,2.4,4.1,5.47,6.3,7.73.51.52.74.39,1.46.36l.1-.07.04-10.39-.14-.2h-1.12Z"/>
  <path class="cls-1" d="M107.35,26.63c-.52-.17-1.03-.45-1.16-1.03-.5-2.35,3.53-2.42,4.87-1.5.71.48.73,1.02.89,1.8l1.18.04c.01-2.08-1.2-3.14-3.16-3.44-2.41-.36-5.66.37-5.02,3.51.49,2.36,4.98,1.92,6.61,2.98.65.42.63,1.51.19,2.08-.95,1.21-4.61,1.13-5.51-.15-.41-.58-.39-1.19-.5-1.83l-1.18-.04c-.15,2.26,1.17,3.61,3.33,3.94,2.2.33,5.53-.11,5.5-2.98-.03-3-4-2.7-6.04-3.38Z"/>
  <path class="cls-1" d="M92.37,26.86h-7.06v-4.45h-1.26v10.67c.4-.06.94.14,1.26-.13v-4.79c.07-.12.17-.12.29-.13,1.56-.18,4.25-.05,5.89,0,.26,0,.48.09.74.01l.14.12v4.92h1.26v-10.67h-1.26v4.45Z"/>
  <path class="cls-1" d="M19.67,22.53v9.12c-.2.05-.14-.05-.19-.11-.63-.71-1.18-1.53-1.78-2.25l-5.63-6.81c-.16-.12-1-.15-1.06.05v10.42c.83.43.87-.05.92-.76.19-2.52-.1-5.15-.09-7.65,0-.23.1-.49.13-.71l7.35,8.95c.29.32.78.29,1.18.29v-10.67c-.28.03-.64-.1-.84.13Z"/>
  <path class="cls-1" d="M43.79,28.08l.13-.13h7.1v-.76h-7.02s-.21-.2-.21-.21v-3.74h7.43c.21-.07.2-.73.01-.84h-8.28v10.59c.08-.03.18.08.21.08h8.28v-.76h-7.65v-4.24Z"/>
  <path class="cls-1" d="M56.25,7.2c-1.93-1.24-3.82-.29-5.28,1.16-.13.12-.98,1.08-.88,1.18.15.03.21-.08.3-.17.63-.66,1.21-1.61,2.27-1.61.91,0,1.75.99,2.23,1.69.32.47.74,1.18,1.01,1.68.98,1.87,1.6,4.13,2.87,5.83,1.15,1.54,2.35,1.23,3.22-.36,1.91-3.5,2.97-10.79,6.79-12.79,1.7-.89,2.54-.27,4.09.27l1.43,1.3c.33.34,1.55,1.96,1.82,2.04.08.03.53.1.44-.11-1.33-1.73-2.82-3.45-4.63-4.7-.32-.22-.68-.38-1-.55-5.27-2.9-9.01-.25-11.19,4.73-.43.99-.71,2.1-1.14,3.07-.08.17.03.23-.28.18-.02-.06.02-.18,0-.25-.04-.13-.16-.08-.17-.08-.25-.47-.51-1.02-.76-1.51-.44-.29-.69-.7-1.15-.99Z"/>
  <path class="cls-1" d="M50.81,16.77c2.21-2.04,2.78-4.42,3.84-7.09.01-.03.02-.05.02-.08,0,0,0,0,0,0-.4-.59-1.2-1.57-2.02-1.58,0,0,0,0,0,0-.73,0-1.2.54-1.7,1.11-.12.14-.25.28-.37.41-.01.01-.02.03-.03.04-.08.09-.23.25-.49.2l-.08-.02-.05-.06c-.2-.21,0-.5.34-.91.22-.28.47-.55.54-.62,1.92-1.9,3.86-2.31,5.6-1.19.26.17.45.36.64.55.03.04.07.07.1.1-.71-1.5-1.34-3.17-2.15-4.54-.64-1.09-1.79-2.37-3.08-1.2-.96.87-2.55,6.17-3.2,7.72-1.65,3.94-4.64,9.15-9.34,4.85-.65-.59-1.54-2-2.17-2.41-.1-.07-.17-.1-.3-.08-.17.17.68,1.19.84,1.39,3.07,3.82,8.59,7.55,13.07,3.4Z"/>
  <path class="cls-1" d="M100.55,20.89c.08-.09.06-.14.06-.26h-1.64l-1.3,1.51h1.47c.34-.48,1.06-.85,1.41-1.26Z"/>
  <path class="cls-1" d="M99.81,22.49c-.15-.13-1.06-.16-1.21.05l-4.71,10.54h1.22l1.64-3.24h5.05s1.43,3.24,1.43,3.24h1.3l.09-.17c-1.57-3.23-2.91-6.58-4.49-9.8-.06-.13-.25-.56-.31-.62ZM97.16,28.71l2.06-4.54,2.06,4.54h-4.12Z"/>
  <path class="cls-1" d="M77.87,22.49c-.06.06-.3.59-.37.73-1.56,3.21-2.88,6.54-4.47,9.74.04.19,1.23.18,1.39.05l1.47-3.16h5.13c.49,1.09.91,2.25,1.55,3.24h1.22l-4.71-10.54c-.15-.21-1.06-.18-1.21-.05ZM76.4,28.71l2.06-4.54,1.98,4.54h-4.03Z"/>
  <path class="cls-1" d="M40,27.95c-.15-.16.45-.34.55-.42.69-.54,1.06-1.19,1.12-2.07.15-2.06-1.16-2.9-3.06-3.06-1.89-.15-3.97.11-5.88,0l-.13.13v10.55l.84-.14.08-4.65h5.25c.13,0,1.02.27,1.15.34,1.05.57.55,3.31.9,4.31.07.17.75.17.92.05-.59-1.7.49-4.39-1.76-5.04ZM39.78,27.18c-.17.09-1.02.35-1.17.35h-5.17v-4.16s.11-.13.08-.21h5.08c.09,0,.88.2,1.01.25,1.62.55,1.57,3.07.15,3.78Z"/>
  <path class="cls-1" d="M27.52,22.4c-1.74-.15-3.7.11-5.46,0l-.11,10.45c.06.17.29.21.45.23,1.35.16,5.17.09,6.39-.33,2.57-.88,3.08-3.57,2.9-6.02-.18-2.44-1.7-4.11-4.16-4.33ZM30.27,30.53c-.49.9-1.79,1.79-2.83,1.79h-4.58c.02-.24-.07-.47-.09-.71-.13-2.12-.18-5.65,0-7.74.03-.33.01-.67.38-.72,1.09-.14,4.28-.07,5.29.26,2.67.86,2.97,4.99,1.83,7.11Z"/>
  <path class="cls-1" d="M4.84,22.42L0,32.99c.29.1.73.18.96-.09l1.38-3.14h5.64c.3.14,1.28,2.75,1.53,3.21l.85.09.13-.18-4.71-10.26c-.18-.34-.62-.22-.94-.21ZM2.77,28.96l2.4-5.38,2.48,5.38H2.77Z"/>
  <path class="cls-1" d="M56.4,22.54l-4.68,10.2.04.3c.26.08.69.09.88-.13l1.53-3.18,5.37-.02.25.09,1.41,3.17.99.1-4.8-10.66c-.28,0-.81-.12-.99.12ZM54.46,28.96l2.4-5.38.23.19,2.34,5.19h-4.96Z"/>
</svg>