<?xml version="1.0" encoding="UTF-8"?>
<svg id="Capa_1" data-name="Capa 1" xmlns="http://www.w3.org/2000/svg" viewBox="0 0 113.39 34.02">
  <defs>
    <style>
      .cls-1 {
        fill: #999595;
      }
    </style>
  </defs>
  <path class="cls-1" d="M34.18,1.65c2.14,0,4.28.02,6.41,0,.9-.01,1.13.29.8,1.15-1.02,2.63-.51,2.16-3.01,2.19-2.73.03-5.47,0-8.21.01-.37-.01-.75.03-1.11.11-.46.11-.78.54-.74,1.01.04.6.51.68.99.68h6.97c2.28,0,3.35,1.46,2.7,3.65-.75,2.55-3.02,4.33-5.9,4.38-4.08.08-8.17.02-12.25.03-.9,0-1.11-.33-.81-1.18.96-2.72.53-2.25,3.05-2.27,2.73-.02,5.47,0,8.21,0,.37.02.75-.02,1.1-.12.44-.16.78-.5.69-1.03s-.52-.58-.95-.58h-6.98c-2.25-.01-3.35-1.51-2.7-3.66.72-2.59,3.1-4.38,5.79-4.36h5.96Z"/>
  <path class="cls-1" d="M60.36,4.78c-.4.31-.86.19-1.3.2h-9.01c-.37-.02-.75.01-1.11.1-.46.1-.78.53-.74,1,.04.59.48.69.97.69h6.98c2.23.01,3.28,1.41,2.68,3.57-.73,2.65-2.97,4.41-5.93,4.46-4.05.07-8.11,0-12.16.02-.97,0-1.17-.39-.85-1.26.99-2.63.52-2.17,3.01-2.19,2.74-.02,5.48,0,8.21,0,.37.02.75-.02,1.11-.11.47-.1.77-.55.7-1.02-.07-.52-.51-.59-.94-.59h-6.98c-2.25-.01-3.32-1.47-2.7-3.67.7-2.56,3.02-4.34,5.68-4.33,3.98-.02,7.95,0,11.93,0,1.72,0,1.76.06,1.13,1.72-.07.17-.15.34-.23.52-.18.29-.2.65-.45.91Z"/>
  <path class="cls-1" d="M74.77,14.83h-5.96c-1.25,0-1.38-.18-.97-1.29.94-2.56.46-2.13,3.03-2.15,2.7-.02,5.4,0,8.11,0,.3.01.6,0,.9-.03.57-.1,1-.41.97-1.04-.03-.7-.6-.66-1.09-.66h-6.75c-2.4,0-3.46-1.49-2.74-3.8.74-2.49,3.03-4.21,5.64-4.21,3.53-.02,7.05,0,10.58,0,1.27,0,1.37.16.92,1.39-.13.35-.28.7-.38,1.06-.2.69-.63.9-1.35.9-2.55-.03-5.1-.02-7.65-.01-.34-.02-.67,0-1.01.05-.56.14-.95.51-.88,1.13s.56.61,1.03.61h6.86c2.29,0,3.34,1.47,2.7,3.65-.78,2.68-3.08,4.35-6.11,4.4-1.94.03-3.89.01-5.83.01Z"/>
  <path class="cls-1" d="M43.99,32.36c-1.91,0-3.83.02-5.73,0-2.25-.03-3.36-1.56-2.63-3.69.65-1.91,1.3-3.83,2.09-5.69,1.01-2.38,2.87-3.74,5.49-3.78,3.71-.06,7.43-.02,11.13-.01,1.15,0,1.25.15.86,1.26-.9,2.55-.45,2.06-2.93,2.09-2.7.03-5.4.03-8.11,0-.84-.01-1.3.27-1.56,1.09-.42,1.35-.95,2.68-1.43,4.02-.45,1.22-.36,1.33.98,1.33h8.43c1.46,0,1.49.06.99,1.47-.13.31-.25.63-.34.95-.18.75-.63,1-1.39.99-1.94-.05-3.89-.02-5.84-.02Z"/>
  <path class="cls-1" d="M90.31,1.85c.35-.31.79-.2,1.19-.2h14.62c1.45,0,1.52.1,1.01,1.48-.79,2.13-.48,1.84-2.69,1.86-1.13,0-2.25.07-3.38-.02-.98-.07-1.4.36-1.7,1.23-.86,2.51-1.83,5-2.7,7.51-.26.75-.63,1.1-1.45,1.05-1.08-.06-2.17-.03-3.26-.01-.79.01-.99-.29-.72-1.04.88-2.39,1.72-4.79,2.58-7.19.54-1.51.52-1.53-1.13-1.54h-2.25c-1.25-.01-1.35-.16-.95-1.29.11-.32.25-.63.37-.94.17-.29.19-.66.46-.91Z"/>
  <path class="cls-1" d="M66.83,1.65q2.87,0,1.89,2.66c-1.13,3.13-2.29,6.25-3.38,9.4-.26.75-.63,1.1-1.45,1.06-1.13-.06-2.25-.02-3.38-.01-.75,0-1.03-.25-.75-1.02,1.38-3.75,2.74-7.52,4.08-11.29.13-.53.64-.87,1.18-.79.6.03,1.2,0,1.8,0Z"/>
  <path class="cls-1" d="M75.19,27.03c.04.68-.21,1.34-.68,1.83.05-.66.29-1.29.68-1.83Z"/>
  <path class="cls-1" d="M90.31,1.85c-.05.35-.13.69-.45.9,0-.37.03-.73.45-.9Z"/>
  <path class="cls-1" d="M60.36,4.78c.04-.36.13-.69.45-.9.04.39-.03.73-.45.9Z"/>
  <path class="cls-1" d="M92.09,19.19c-4.44-.04-8.86-.02-13.28-.02-.5-.05-.97.27-1.09.76-.83,2.36-1.68,4.73-2.52,7.09-.24.6-.36,1.25-.68,1.81-.29.81-.58,1.62-.9,2.42-.35.85.05,1.09.82,1.09,1.13,0,2.25-.02,3.38,0,.54.06,1.04-.29,1.17-.82.36-1.06.8-2.1,1.15-3.17.27-.83.79-1.22,1.66-1.22,1.39.02,2.78.02,4.16,0,.77-.01,1.04.29.77,1.04-.23.63-.45,1.27-.68,1.9-.82,2.27-.82,2.29,1.62,2.27,3.58-.04,2.74.52,4.04-2.85.45-1.16,1.18-2.38-.48-3.38,2.08-.84,3.05-2.27,3.22-4.22.12-1.51-.87-2.69-2.35-2.7ZM87.8,24.17s-.02,0-.03,0c-1.78.28-3.58.17-5.36.06-.3-.04-.52-.31-.48-.61,0-.02,0-.04.01-.06.02-.51.42-.93.94-.97.82-.07,1.64-.02,2.47-.02v-.03h2.13c.45,0,.87.11.96.59.11.46-.17.92-.63,1.04Z"/>
  <path class="cls-1" d="M71.76,19.18c-1.58-.01-3.15,0-4.73,0s-3.15-.04-4.72,0c-2.57.07-4.48,1.31-5.45,3.67-1.14,2.77-2.07,5.62-3.11,8.43-.27.74-.03,1.07.73,1.07,1.09,0,2.17-.04,3.26.01.82.05,1.23-.34,1.47-1.08.33-1,.74-1.97,1.07-2.96.26-.78.72-1.15,1.58-1.13,1.39.04,2.78.05,4.16,0,.97-.03,1.08.36.77,1.16-.37.94-.66,1.91-1.03,2.85-.31.77-.11,1.14.74,1.14h3.49c.5,0,.86-.17,1.04-.68,1.1-3.07,2.28-6.11,3.3-9.21.61-1.82-.59-3.27-2.55-3.29ZM67.77,24.24c-1.71.2-3.42.1-5.14.05-.38-.01-.58-.33-.54-.72.06-.55.38-.92.93-.95.82-.05,1.64-.01,2.46-.01v-.02s2.13,0,2.13,0c.43,0,.87.04.93.58s-.25,1.01-.77,1.07Z"/>
  <path class="cls-1" d="M18.18,1.65c-1.58-.02-3.15,0-4.73,0s-3.07-.03-4.59,0c-2.54.07-4.54,1.16-5.53,3.53C2.14,8.02,1.17,10.94.1,13.81c-.26.68-.04,1.01.68,1.01,1.16.01,2.32-.02,3.49.01.66.02,1.03-.25,1.24-.88.37-1.1.8-2.18,1.19-3.27.24-.69.67-1.02,1.43-1.01,1.46.03,2.92.03,4.38,0,.83-.02.97.31.69,1.03-.39,1.01-.7,2.05-1.08,3.07-.29.76-.03,1.05.73,1.05,1.16,0,2.32-.02,3.49,0,.63.01.95-.3,1.15-.86,1.05-2.96,2.16-5.91,3.17-8.88.64-1.89-.48-3.4-2.47-3.44ZM14.91,5.78c0,.52-.4.95-.91.97-.86.06-1.72.01-2.58.01v.03h-2.02c-.45,0-.87-.06-.95-.57-.09-.56.23-1.07.73-1.09,1.71-.09,3.43-.07,5.14-.05.33,0,.59.28.58.61,0,.03,0,.06,0,.09Z"/>
  <path class="cls-1" d="M110.77,19.19c-3.97-.02-7.94,0-11.91-.02-.7,0-1.1.23-1.34.9-1.32,3.7-2.65,7.4-4.01,11.08-.34.91-.08,1.23.87,1.21,2.21-.02,4.42,0,6.63,0s4.42-.01,6.64,0c1.26,0,2.2-.49,2.65-1.68,1-2.7,2.01-5.4,2.93-8.13.61-1.81-.55-3.35-2.45-3.37ZM107.39,23.54c-.59,1.53-1.15,3.08-1.69,4.63-.2.59-.58.82-1.18.8-.67-.02-1.34,0-2.02,0q-2.97,0-1.96-2.83c.33-.91.66-1.82.96-2.74.17-.52.45-.83,1.04-.82,1.38.01,2.76,0,4.14,0,.68,0,.98.23.7.97Z"/>
</svg>