<?xml version="1.0" encoding="UTF-8"?>
<svg id="Capa_1" data-name="Capa 1" xmlns="http://www.w3.org/2000/svg" viewBox="0 0 113.39 68.03">
  <defs>
    <style>
      .cls-1 {
        fill: #999595;
      }
    </style>
  </defs>
  <path class="cls-1" d="M37.62,53.16c-.02-3.61-.02-7.21,0-10.82,0-.4-.08-.52-.51-.52-5.62,0-11.24.01-16.86.01-.28,0-.57,0-.85-.02-1.7-.13-3.14-.8-4.21-2.13-1.68-2.09-1.82-4.53-1.22-6.99.65-2.68,3.07-4.4,5.93-4.41,5.73-.01,11.46,0,17.19,0,.45,0,.53-.13.53-.55-.02-3.7-.02-7.4,0-11.1,0-.38-.1-.46-.46-.46-4.79,0-9.57,0-14.36,0-3.23,0-6.45.22-9.59,1.05-2.99.78-5.75,2.03-8.05,4.15C2.31,24.04.87,27.38.27,31.15c-.09.56-.03,1.15-.27,1.68v.38s0,0,0,0c0,0,0,0,0,0v.19s0,0,0,0v.66s0,0,0,0c0,0,0,0,0,0v.66s0,0,0,0c0,0,0,0,0,0v.66s0,0,0,0c0,0,0,0,0,0v.66s0,0,0,0c0,0,0,0,0,0v.47s0,0,0,0c0,0,0,0,0,0v.38s0,0,0,0v.38c.24.54.18,1.12.27,1.68.56,3.56,1.88,6.74,4.5,9.29,1.96,1.91,4.31,3.13,6.89,3.95,3.37,1.07,6.84,1.37,10.34,1.39,5.05.03,10.11,0,15.16.03.37,0,.46-.09.46-.46Z"/>
  <path class="cls-1" d="M101.58,13.21c3.93,0,7.86-.01,11.8-.02,0-3.92,0-7.84,0-11.76,0-.28-.05-.34-.34-.34-3.92,0-7.84,0-11.76,0,0,3.93-.01,7.86-.02,11.79,0,.25.08.32.32.32Z"/>
  <path class="cls-1" d="M45.92,57.92c0-.23-.11-.25-.29-.25-.69,0-1.39.01-2.08,0-.23,0-.29.07-.29.29,0,.61,0,1.23,0,1.84,0,1.12.03,2.24-.05,3.35-.07,1-.75,1.51-1.72,1.49s-1.53-.56-1.63-1.54c-.02-.23-.03-.47-.03-.71,0-1.45-.01-2.9,0-4.35,0-.26-.03-.39-.35-.38-.68.03-1.35.01-2.03,0-.2,0-.28.05-.28.26.04,1.9-.1,3.81.08,5.71.15,1.63,1.23,2.76,2.83,3.11.19.04.41,0,.55.18h.29s0,0,0,0h.94s-.02,0-.02,0c.01,0,.02,0,.04,0h.28c.05-.15.19-.08.28-.09,1.98-.22,3.22-1.41,3.41-3.41.18-1.83.03-3.68.07-5.52Z"/>
  <path class="cls-1" d="M56.14,61.48c-.76-.24-1.55-.4-2.32-.63-.34-.1-.76-.22-.69-.7s.5-.51.88-.54c.09,0,.19,0,.28.01.74.05,1.46.29,2.08.69.26.17.38.12.54-.12.27-.41.56-.8.86-1.18.19-.23.16-.34-.09-.51-1.13-.76-2.39-1.02-3.72-1-.84,0-1.66.24-2.36.7-1.36.89-1.75,3.51.37,4.44.51.21,1.03.38,1.56.51.58.15,1.17.23,1.71.5.21.1.36.27.34.52,0,.25-.18.46-.42.51-.15.05-.3.07-.46.09-.7.04-1.36-.11-2.03-.35-.46-.16-.84-.76-1.27-.57s-.7.74-1.04,1.13c-.04.05-.08.1-.12.14-.21.18-.17.3.05.46.8.58,1.72.98,2.7,1.17.25.05.53,0,.75.18h.28s0,0,0,0c0,0,0,0,0,0h.94s0-.05,0-.08c0,0,0,0,0,0,0,0,0,0,0,0,.28-.04.56-.06.84-.13,1.52-.36,2.41-1.42,2.39-2.85-.01-1.18-.67-1.96-2.08-2.4Z"/>
  <path class="cls-1" d="M113.29,64.58c-.38-.08-.76-.03-1.13-.04-1.11-.03-2.23.05-3.34-.04-.13-1.11-.03-2.22-.05-3.33-.02-1.04-.01-2.08,0-3.12,0-.26-.03-.39-.35-.38-.63.03-1.26.03-1.89,0-.31-.01-.35.11-.35.38.01,2.77.01,5.54,0,8.31,0,.3.07.4.39.4,2.24-.01,4.47-.01,6.71-.01v-.02s0,.01,0,.02h.11s0-2.16,0-2.16c-.03,0-.06,0-.09,0Z"/>
  <path class="cls-1" d="M100.76,40.47c.42,0,.51.1.51.51-.02,4.06,0,8.13-.02,12.19,0,.29,0,.45.39.45,3.87-.02,7.75-.02,11.62-.02,0,0,0,0,0,0,0,0,0,0,0,0h.11s0-37.4,0-37.4l-.12.03c-3.83,0-7.65,0-11.48,0-.41,0-.52.08-.52.51.02,3.82,0,7.65.02,11.48,0,.42-.1.52-.52.52-5.05-.02-10.11-.02-15.16,0-.45,0-.5-.14-.5-.53.02-3.82,0-7.65.02-11.48,0-.39-.06-.53-.5-.53-3.72.02-7.43.02-11.15,0-.43,0-.51.12-.51.52,0,6.8,0,13.6,0,20.41v.61c-.12-.14-.18-.19-.22-.24-2.86-3.54-5.81-7-8.74-10.47-2.06-2.43-4.05-4.9-6.21-7.24-1.14-1.23-2.39-2.33-4.02-2.88-1.45-.49-2.95-.67-4.46-.68-2.72-.02-5.45,0-8.17-.02-.37,0-.46.1-.46.46.01,12.16.01,24.31,0,36.47,0,.39.09.49.49.49,3.69-.02,7.37-.02,11.06,0,.45,0,.57-.09.57-.56,0-6.63,0-13.26,0-19.89,0-.16-.05-.33.08-.51.06.08.1.12.14.17,4.79,5.39,9.59,10.76,14.4,16.13,2.71,3.02,6.04,4.7,10.17,4.64,2.35-.04,4.69-.02,7.04,0,.39,0,.49-.09.49-.49-.02-4.05,0-8.09-.02-12.14,0-.4.08-.52.5-.52,5.05.02,10.11.02,15.16,0Z"/>
  <path class="cls-1" d="M18.53,57.67c-.61.02-1.23.02-1.84,0-.29-.01-.37.07-.37.36.02,1.02,0,2.05,0,3.07v1.37c-.93-1.16-1.77-2.22-2.63-3.26-.43-.52-.73-1.27-1.32-1.48-.6-.22-1.34-.04-2.01-.06-.27,0-.34.08-.34.35.01,2.78.01,5.57,0,8.36,0,.33.12.39.41.38.58-.02,1.17-.03,1.75,0,.33.02.42-.08.42-.41-.02-1.48,0-2.95,0-4.58,1.02,1.26,1.94,2.41,2.87,3.55.39.48.69,1.13,1.2,1.36.52.24,1.23.07,1.86.07.02,0,.03,0,.05,0,.28.05.34-.09.34-.35-.01-2.8-.01-5.6,0-8.4,0-.29-.12-.33-.36-.33Z"/>
  <path class="cls-1" d="M69.7,57.67c-1.24.02-2.49,0-3.73,0s-2.49.01-3.73,0c-.31,0-.39.1-.38.39.02.47.02.95,0,1.42-.02.3.06.41.38.4.64-.03,1.29.02,1.93-.02.39-.02.5.09.5.49-.02,1.98,0,3.96-.02,5.95,0,.38.11.48.47.46.55-.03,1.1-.03,1.65,0,.38.02.5-.07.5-.48-.02-2,0-4-.02-5.99,0-.32.06-.44.41-.42.69.03,1.39,0,2.08.01.27,0,.36-.08.35-.35-.02-.49-.02-.98,0-1.46.02-.3-.07-.4-.39-.4Z"/>
  <path class="cls-1" d="M4.53,57.67c-.63.02-1.26.03-1.89,0-.33-.02-.38.11-.38.4.01,1.38,0,2.77,0,4.15s0,2.77,0,4.15c0,.26.03.39.35.38.64-.03,1.29-.02,1.93,0,.28,0,.34-.1.34-.35-.01-2.8-.01-5.6,0-8.4,0-.29-.11-.33-.36-.33Z"/>
  <path class="cls-1" d="M89.48,62.22c0-1.4,0-2.8.01-4.2,0-.24-.03-.37-.32-.36-.66.02-1.32.02-1.98,0-.26,0-.31.09-.31.33.01,2.8.01,5.6,0,8.4,0,.3.1.37.38.36.58-.02,1.16-.03,1.74,0,.38.02.51-.06.5-.47-.03-1.35-.01-2.7-.01-4.06Z"/>
  <path class="cls-1" d="M82,61.69c.52-1.93-.55-3.61-2.55-3.9-1.8-.26-3.61-.06-5.42-.11-.28,0-.24.18-.24.35,0,2.78,0,5.57,0,8.35,0,.27.05.39.36.38.63-.03,1.26-.03,1.89,0,.33.02.39-.12.38-.41-.01-.68,0-1.35,0-2.03,0-.1-.04-.23.07-.3.23-.15,1.11.05,1.27.29.5.72,1,1.45,1.5,2.17.08.11.13.27.3.27h2.88l-2.22-3.15c1.14-.66,1.58-1.13,1.79-1.91ZM78.78,61.92c-.72.21-1.47.07-2.2.1-.16,0-.16-.11-.16-.22v-.89c0-1.06,0-1.06,1.07-1.05.42,0,.85-.05,1.26.09.52.17.77.49.76,1,.01.46-.29.87-.74.98Z"/>
  <path class="cls-1" d="M29.14,57.78c-1.55-.22-3.11-.05-4.67-.1-.29,0-.23.18-.23.35v7.6c0,1.13,0,1.14,1.1,1.13,1.37-.02,2.74.1,4.09-.18,2.58-.54,4.07-2.71,3.62-5.31-.32-1.82-1.84-3.19-3.91-3.48ZM30.49,62.31c-.06,1.23-.86,2.05-2.12,2.16-.41.03-.82,0-1.23.03-.25.01-.32-.07-.32-.31.02-.65,0-1.32,0-1.97,0-.66.01-1.32,0-1.98,0-.27.08-.35.35-.34.5.01,1.01-.02,1.5.08,1.18.25,1.87,1.15,1.81,2.34Z"/>
  <path class="cls-1" d="M99.64,57.88c-.11-.24-.24-.28-.47-.28-.58.02-1.17.03-1.75,0-.33-.02-.46.11-.58.39-1.21,2.79-2.43,5.58-3.65,8.37-.05.11-.15.21-.09.39.43,0,.86,0,1.29,0s.96.13,1.3-.06c.36-.2.38-.79.58-1.19,0-.01.01-.03.02-.05.06-.26.21-.33.47-.33.98.02,1.95.02,2.93,0,.26,0,.4.06.49.32.12.35.3.69.43,1.04.07.18.15.27.37.27.82-.01,1.63,0,2.47,0,0-.05,0-.1,0-.15-1.27-2.9-2.54-5.81-3.8-8.71ZM97.47,63.17c-.07,0-.15,0-.22-.02,0-.05-.02-.08,0-.11.32-.78.64-1.57,1-2.44.36.87.69,1.68,1.05,2.56h-1.81Z"/>
</svg>