<?xml version="1.0" encoding="UTF-8"?>
<svg id="Capa_1" data-name="Capa 1" xmlns="http://www.w3.org/2000/svg" viewBox="0 0 113.39 42.52">
  <defs>
    <style>
      .cls-1 {
        fill: #f6f4f5;
      }

      .cls-2 {
        fill: #999595;
      }

      .cls-3 {
        fill: #fdfdfd;
      }
    </style>
  </defs>
  <path class="cls-2" d="M50.87,24.67c.18-.36.36-.72.53-1.09,1.08-2.37,2.01-4.78,2.39-7.38.26-1.8.04-3.52-.89-5.11-.22-.38-.42-.78-.59-1.18-.47-1.04-.22-2.03.62-2.54.91-.55,2.07-.35,2.75.46.59.71.81,1.56.84,2.46.1,2.84-.48,5.57-1.4,8.24-2.03,5.87-5.16,11.07-9.56,15.49-1.23,1.25-2.59,2.31-4.29,2.88-.86.3-1.78.4-2.69.3-1.3-.15-2.03-.98-1.87-2.11.18-1.19,1.29-2.01,2.48-1.83.41.07.81.18,1.2.32,2.99,1,6.07-1.08,6.11-4.25.09-4.63-.6-9.24-2.07-13.63-.39-1.15-.8-2.3-1.2-3.45-.06-.2-.14-.39-.23-.58-.29-.52-.58-1.15-1.3-1.04-.67.11-.66.8-.78,1.3-.18.92-.24,1.86-.21,2.79,0,.34-.07.53-.48.52-.33-.01-.53-.06-.53-.47.02-1.61.04-3.22.5-4.78.42-1.42,1.14-2.59,2.73-2.88,1.64-.3,2.87.45,3.83,1.71s1.53,2.76,1.99,4.28c1.13,3.74,1.75,7.58,2.1,11.54Z"/>
  <path class="cls-2" d="M68.63,17.15c.64-.99,1.25-2.01,2.21-2.74.68-.54,1.52-.83,2.38-.83,1.33,0,2.06.68,2.14,2.04,0,.44-.01.88-.07,1.32-.03.42-.08.85-.07,1.3.68-1.11,1.35-2.21,2.32-3.09,1.06-.94,2.25-1.56,3.7-1.56,1.89.01,2.91,1.16,2.72,3.06-.13,1.3-.52,2.54-.92,3.77-.42,1.28-.86,2.55-1.29,3.83-.1.29-.18.59-.26.9-.11.42-.16.87.27,1.12s.78-.11,1.06-.39c.6-.59.98-1.33,1.43-2.03.17-.26.31-.62.7-.42.34.19.16.49.03.75-.62,1.26-1.37,2.44-2.46,3.37-.58.53-1.3.87-2.08.99-1.97.25-3.21-1.03-2.88-2.99.32-1.93,1.02-3.74,1.61-5.6.32-.99.6-1.98.89-2.98.12-.42.13-.83-.23-1.15s-.79-.18-1.18-.03c-.98.4-1.61,1.2-2.15,2.06-1.11,1.74-1.78,3.68-2.45,5.61-.47,1.37-.96,2.74-1.41,4.12-.13.41-.31.59-.77.57-.78-.04-1.56-.03-2.34,0-.56.02-.65-.15-.49-.68.71-2.46,1.38-4.94,2.06-7.42.28-.97.48-1.97.59-2.97.04-.44.08-.95-.42-1.17s-.82.18-1.11.5c-.44.51-.8,1.09-1.06,1.71-.17.36-.38.54-.78.4-.53-.57.01-.94.3-1.36Z"/>
  <path class="cls-2" d="M91.38,18.11c.72-1.09,1.43-2.13,2.38-2.99,1.13-1.04,2.44-1.63,4.01-1.52,1.45.1,2.34,1,2.38,2.46.04,1.29-.34,2.52-.72,3.73-.52,1.66-1.09,3.3-1.64,4.95-.07.22-.13.45-.16.68-.06.36.02.69.36.87s.6-.02.83-.23c.69-.61,1.12-1.42,1.6-2.19.17-.28.33-.7.75-.42.35.24.1.57-.05.83-.67,1.16-1.3,2.35-2.36,3.23-.8.67-1.69,1.1-2.76,1.06-1.36-.06-2.29-.98-2.29-2.34,0-1.27.42-2.45.79-3.64.52-1.71,1.1-3.41,1.64-5.11.1-.3.16-.6.18-.91.03-.71-.42-1.07-1.1-.89-1.23.32-1.95,1.25-2.57,2.25-1.45,2.36-2.18,5.04-3.12,7.62-.25.68-.5,1.37-.7,2.06-.11.38-.28.56-.7.54-.8-.03-1.61-.03-2.41,0-.51.02-.62-.14-.48-.63.73-2.57,1.42-5.15,2.13-7.73.26-.92.44-1.87.54-2.82.04-.43,0-.87-.45-1.07s-.74.15-1,.43c-.48.55-.87,1.17-1.17,1.83-.13.26-.24.54-.62.37-.44-.19-.19-.47-.08-.7.8-1.64,1.65-3.22,3.48-3.98,2.11-.87,3.62.14,3.48,2.4-.04.62-.12,1.24-.16,1.86Z"/>
  <path class="cls-2" d="M109.07,27.06c1.04-2.19,1.96-4.35,2.25-6.72.18-1.27-.08-2.56-.72-3.67-.17-.29-.32-.59-.46-.9-.36-.83-.16-1.59.5-1.98.76-.44,1.72-.22,2.21.51.42.6.52,1.28.53,2,.03,2.59-.65,5.03-1.6,7.4-1.59,4.07-3.96,7.79-6.99,10.94-.83.9-1.82,1.63-2.93,2.16-.8.38-1.7.53-2.58.43-1.02-.11-1.56-.75-1.45-1.65.15-.88.96-1.5,1.86-1.4.23.03.46.09.68.16,2.51.77,4.59-.45,5.17-3.03.16-.79.2-1.6.13-2.4-.21-4-1.11-7.93-2.63-11.64-.07-.19-.17-.38-.3-.54-.18-.23-.39-.43-.72-.39s-.44.32-.53.6c-.25.78-.21,1.59-.26,2.39-.01.26.05.53-.36.55s-.42-.22-.42-.5c.03-1.25.03-2.49.43-3.69.34-1.02.9-1.82,2.03-2.04s2.04.2,2.76,1.05c1.12,1.33,1.6,2.95,2.03,4.58.65,2.38,1.04,4.83,1.17,7.29-.03.19.04.39.19.51Z"/>
  <path class="cls-2" d="M29.55,5.63c-6.69-6.98-16.6-7.1-23.38-.21C1.9,9.77.11,15.15,0,21.16c-.05,3.2.57,6.38,1.81,9.33,1.79,4.25,4.53,7.73,8.69,9.86,6.25,3.21,13.13,2.16,18.27-2.67,8.65-8.12,9.02-23.45.78-32.05ZM27.85,37.21c-5.86,5.32-14.47,5.29-20.31-.04-.07-.08-.12-.16-.17-.24-.31-.27-.75-.43-.79-.93h-.02c-.35.01-.48-.28-.65-.49C.92,29.39-.28,22.46,1.72,14.95c1.27-4.78,3.92-8.69,8.18-11.33C16.07-.21,23.59.82,28.79,6.24c4.53,4.72,6.23,10.5,5.74,16.93-.42,5.51-2.53,10.28-6.68,14.04ZM8.8,37.02c.15-.11.4-.04.6.07.11.05.23.1.36.13-.31,0-.64-.01-1.02.07.37.27.63.48.89.66,5.97,4.03,13.35,3.27,18.5-1.88,7.7-7.7,7.83-21.47.27-29.33C23.09,1.21,15.13.43,9.19,4.9c-3.85,2.91-6.14,6.83-7.14,11.51-1.22,5.74-.43,11.19,2.62,16.26.57,1.01,1.29,1.94,2.14,2.75.03-.06.05-.13.06-.19.04.28.06.57-.29.77.28.05.54.06.48-.38-.02-.3-.03-.6-.02-.9,0-.01.01-.01.02-.02.02-.1.05-.19.1-.28.61-1.05,1.59-1.35,2.97-.94.89.26,1.76.61,2.73.42,2.12-.43,3.85-2.46,3.87-4.66.06-6.05-1.2-11.84-3.45-17.44-.13-.37-.35-.69-.65-.95-.56-.43-1.03-.33-1.31.3-.09.25-.16.5-.21.75-.22.94-.16,1.91-.21,2.87-.01.31-.09.49-.44.47-.29-.02-.51-.04-.51-.42.02-1.89,0-3.8.78-5.58,1.05-2.38,3.68-2.88,5.57-1.1,1.07,1,1.69,2.29,2.18,3.63,1.02,2.8,1.6,5.69,2.02,8.62.2,1.43.29,2.86.38,4.3.16-.01.3-.11.35-.26.99-2.14,1.89-4.32,2.47-6.62.65-2.61.54-5.08-.94-7.41-.11-.17-.2-.36-.27-.55-.42-.96-.23-1.82.52-2.37.77-.54,1.8-.51,2.53.07.61.49.88,1.15,1.02,1.87.34,1.75.08,3.47-.25,5.18-.92,4.83-2.97,9.2-5.65,13.3-1.91,2.91-4.05,5.65-6.88,7.75-1,.75-2.09,1.35-3.38,1.44-.01,0-.02.01-.03.01,0,0,0-.01,0-.01-.45.05-.83-.26-1.25-.3-.58-.04-1.15.29-1.76.14.47.16.9.5,1.43.09Z"/>
  <path class="cls-3" d="M26.92,10.61c0,2.15-.31,4.29-.95,6.35-1.68,5.8-4.64,11.16-8.66,15.67-1.41,1.59-2.88,3.15-4.86,4.08-.64.3-1.28.57-2,.57-.07.01-.14.01-.21.01-.16,0-.33-.03-.48-.07-.13-.03-.25-.08-.36-.13-.2-.11-.45-.18-.6-.07-.53.41-.96.07-1.43-.09.61.15,1.18-.18,1.76-.14.42.04.8.35,1.25.3,0,0,0,.01,0,.01,0,0,.02-.01.03-.01,1.29-.09,2.38-.69,3.38-1.44,2.83-2.1,4.97-4.84,6.88-7.75,2.68-4.1,4.73-8.47,5.65-13.3.33-1.71.59-3.43.25-5.18-.14-.72-.41-1.38-1.02-1.87-.73-.58-1.76-.61-2.53-.07-.75.55-.94,1.41-.52,2.37.07.19.16.38.27.55,1.48,2.33,1.59,4.8.94,7.41-.58,2.3-1.48,4.48-2.47,6.62-.05.15-.19.25-.35.26-.09-1.44-.18-2.87-.38-4.3-.42-2.93-1-5.82-2.02-8.62-.49-1.34-1.11-2.63-2.18-3.63-1.89-1.78-4.52-1.28-5.57,1.1-.78,1.78-.76,3.69-.78,5.58,0,.38.22.4.51.42.35.02.43-.16.44-.47.05-.96-.01-1.93.21-2.87.05-.25.12-.5.21-.75.28-.63.75-.73,1.31-.3.3.26.52.58.65.95,2.25,5.6,3.51,11.39,3.45,17.44-.02,2.2-1.75,4.23-3.87,4.66-.97.19-1.84-.16-2.73-.42-1.38-.41-2.36-.11-2.97.94-.05.09-.08.18-.1.28,0,.01-.02.01-.02.02-.01.3,0,.6.02.9.06.44-.2.43-.48.38.35-.2.33-.49.29-.77-.01-.15-.03-.31,0-.45,0-.03,0-.06.02-.09.35-1.18,1.56-1.87,2.74-1.55.44.08.87.19,1.28.34,2.52,1.02,5.06-1.39,5.46-3.21.21-1.09.25-2.21.13-3.32-.28-3.15-.61-6.31-1.49-9.36-.55-1.89-1.18-3.77-1.92-5.6-.2-.5-.44-1.11-1.09-1.05-.65.07-.61.75-.73,1.23-.15.62-.06,1.25-.1,1.87-.02.29-.07.57-.14.85-.08.34-.26.56-.64.55-.38-.02-.68-.26-.67-.63.05-2.17-.03-4.37,1.19-6.32,1.2-1.9,3.75-1.89,5.14-.79,1.18.94,1.92,2.17,2.43,3.55,1.27,3.37,1.97,6.88,2.38,10.45.09.79.15,1.59.21,2.41.98-1.88,1.74-3.86,2.28-5.91.39-1.46.62-2.94.44-4.46-.13-1-.54-1.89-1-2.77-.16-.3-.34-.58-.47-.89-.51-1.21-.26-2.24.68-2.81,1.07-.65,2.32-.4,3.12.62.62.8.78,1.75.8,2.72Z"/>
  <path class="cls-1" d="M28.13,36.07c-5.15,5.15-12.53,5.91-18.5,1.88-.26-.18-.52-.39-.89-.66.38-.08.71-.06,1.02-.07-.13-.03-.25-.08-.36-.13-.2-.11-.45-.18-.6-.07-.53.41-.96.07-1.43-.09.61.15,1.18-.18,1.76-.14.42.04.8.35,1.25.3,0,0,0,.01,0,.01-.03.08-.08.14-.13.19-.28.27-.68.08-.99.12,3.92,2.88,8.52,3.69,12.86,2.19,3.6-1.25,6.31-3.62,8.36-6.79,1.73-2.67,2.8-5.71,3.13-8.87.66-5.99-.71-11.46-4.57-16.17-2.51-3.06-5.76-5.01-9.74-5.46-3.77-.43-7.22.57-10.21,2.94-3.85,3.05-6.09,7.06-6.97,11.87-.84,4.39-.34,8.92,1.43,13.02.71,1.59,1.62,3.08,2.71,4.44.21.26.4.27.62.2.05-.02.11-.05.17-.08v.02c-.01.3,0,.6.02.9.06.44-.2.43-.48.38.35-.2.33-.49.29-.77-.01.06-.03.13-.06.19-.85-.81-1.57-1.74-2.14-2.75-3.05-5.07-3.84-10.52-2.62-16.26,1-4.68,3.29-8.6,7.14-11.51C15.13.43,23.09,1.21,28.4,6.74c7.56,7.86,7.43,21.63-.27,29.33Z"/>
  <path class="cls-2" d="M68.15,15.42c-.51-.88-1.3-1.38-2.27-1.64-1.13-.29-2.32-.3-3.46-.02-5.23,1.17-7.94,7.09-7,11.37.4,1.78,1.54,2.92,3.35,3.29,1.27.29,2.61.15,3.8-.39,1.76-.82,2.99-2.2,4.07-3.74.2-.28.28-.59-.02-.83-.34-.27-.62-.11-.87.18-.42.5-.84,1-1.3,1.46-.82.81-1.74,1.51-2.94,1.58s-2.08-.71-2.27-1.98c-.26-1.8.05-2.4,1.39-2.76.6-.16,1.21-.3,1.8-.49,1.95-.59,3.81-1.36,5.22-2.92.2-.2.36-.41.47-.62v-.02c.06-.08.1-.16.13-.24h0c.27-.7.17-1.45-.1-2.23ZM63.44,19.14c-.89.79-1.93,1.4-3.06,1.79-.16.06-.34.21-.51.08-.16-.13-.02-.33.02-.49.31-1.34.79-2.63,1.43-3.84.41-.76.89-1.46,1.69-1.87,1.12-.56,2.06.03,2.06,1.47-.04,1.09-.72,2.05-1.63,2.86Z"/>
  <path class="cls-2" d="M28.13,36.07c-5.15,5.15-12.53,5.91-18.5,1.88-.26-.18-.52-.39-.89-.66.38-.08.71-.06,1.02-.07.21-.01.42-.03.61-.12,0,0,.02-.01.03-.01,1.29-.09,2.38-.69,3.38-1.44,2.83-2.1,4.97-4.84,6.88-7.75,2.68-4.1,4.73-8.47,5.65-13.3.33-1.71.59-3.43.25-5.18-.14-.72-.41-1.38-1.02-1.87-.73-.58-1.76-.61-2.53-.07-.75.55-.94,1.41-.52,2.37.07.19.16.38.27.55,1.48,2.33,1.59,4.8.94,7.41-.58,2.3-1.48,4.48-2.47,6.62-.05.15-.19.25-.35.26-.09-1.44-.18-2.87-.38-4.3-.42-2.93-1-5.82-2.02-8.62-.49-1.34-1.11-2.63-2.18-3.63-1.89-1.78-4.52-1.28-5.57,1.1-.78,1.78-.76,3.69-.78,5.58,0,.38.22.4.51.42.35.02.43-.16.44-.47.05-.96-.01-1.93.21-2.87.05-.25.12-.5.21-.75.28-.63.75-.73,1.31-.3.3.26.52.58.65.95,2.25,5.6,3.51,11.39,3.45,17.44-.02,2.2-1.75,4.23-3.87,4.66-.97.19-1.84-.16-2.73-.42-1.38-.41-2.36-.11-2.97.94-.05.09-.08.18-.1.28,0,.01-.02.01-.02.02-.15.12-.12.31-.17.51-.01.06-.03.13-.06.19-.85-.81-1.57-1.74-2.14-2.75-3.05-5.07-3.84-10.52-2.62-16.26,1-4.68,3.29-8.6,7.14-11.51C15.13.43,23.09,1.21,28.4,6.74c7.56,7.86,7.43,21.63-.27,29.33Z"/>
</svg>