<svg width="180" height="68" viewBox="0 0 180 68" fill="none" xmlns="http://www.w3.org/2000/svg">
<path d="M75.6027 46.0953H104.395L103.061 41.1032C125.134 38.8738 141.425 31.1287 141.425 21.9181C141.425 11.3069 119.808 2.64161 92.6355 2.11309L92.2467 0.659668L87.5955 0.674082L87.2139 2.11549C60.1132 2.67284 38.5732 11.3261 38.5732 21.9181C38.5732 31.1263 54.8548 38.869 76.9203 41.1008L75.6027 46.0953ZM130.467 18.1848C130.467 23.7222 117.514 28.3732 100.006 29.68L93.7731 6.37486C114.348 6.9322 130.467 12.0084 130.467 18.1848ZM49.5316 18.1848C49.5316 12.0228 65.578 6.95623 86.0883 6.37966L79.9371 29.6776C62.458 28.366 49.5316 23.7174 49.5316 18.1872V18.1848Z" fill="#999595"/>
<path d="M57.8392 63.9466C57.4769 63.9466 57.2273 63.8217 57.0953 63.5695C56.9609 63.3196 56.8937 62.9232 56.8937 62.3827V58.6206H58.4488V57.5924H56.8937V55.3486L55.7273 55.7979V57.5924H54.3809V58.6206H55.6889V62.5148C55.6889 63.3725 55.8257 63.9995 56.0969 64.3959C56.3681 64.7923 56.8457 64.9893 57.5272 64.9893C57.8632 64.9893 58.192 64.9412 58.5112 64.8451L58.4992 63.7881C58.2328 63.8938 58.012 63.9466 57.8392 63.9466Z" fill="#999595"/>
<path d="M40.4687 60.9478C40.4687 61.8944 40.3199 62.6055 40.0223 63.0835C39.7247 63.5616 39.2951 63.7994 38.7335 63.7994C38.2319 63.7994 37.8671 63.6217 37.6391 63.2637C37.4111 62.9058 37.2959 62.3556 37.2959 61.6133V57.5894H36.0911V61.916C36.0911 62.9298 36.2783 63.6889 36.6551 64.1958C37.0319 64.7027 37.5863 64.955 38.3183 64.955C39.3455 64.955 40.0967 64.4529 40.5719 63.4511V64.8541H41.6735V57.5894H40.4687V60.9478Z" fill="#999595"/>
<path d="M33.814 58.4025C33.5764 58.083 33.2932 57.8403 32.9644 57.6722C32.6356 57.504 32.278 57.4199 31.8892 57.4199C31.3972 57.4199 30.9532 57.552 30.562 57.8187C30.1684 58.083 29.8468 58.477 29.5972 58.9983V57.5953H28.51V67.8846H29.7148V63.6876C30.1972 64.5453 30.9052 64.9753 31.8388 64.9753C32.2444 64.9753 32.6164 64.8864 32.9524 64.7063C33.2884 64.5285 33.5764 64.269 33.814 63.9327C34.0516 63.594 34.2364 63.188 34.3708 62.7099C34.5052 62.2318 34.5724 61.6889 34.5724 61.0835C34.5724 60.5238 34.5052 60.0169 34.3708 59.5628C34.2364 59.1088 34.0516 58.7244 33.814 58.4049V58.4025ZM33.3028 61.1652C33.3028 62.042 33.1396 62.7195 32.8108 63.1976C32.482 63.6756 32.05 63.9135 31.5148 63.9135C30.9796 63.9135 30.5452 63.678 30.214 63.2048C29.8804 62.7315 29.7148 62.0565 29.7148 61.1796C29.7148 60.3027 29.8876 59.6709 30.2332 59.2049C30.5788 58.7364 31.0228 58.5034 31.5676 58.5034C32.1124 58.5034 32.5156 58.734 32.83 59.1977C33.1444 59.6613 33.3028 60.3172 33.3028 61.1652Z" fill="#999595"/>
<path d="M48.378 58.3553C47.8908 57.7283 47.2236 57.416 46.3764 57.416C45.9276 57.416 45.5172 57.5049 45.1452 57.6827C44.7732 57.8605 44.454 58.1127 44.1876 58.4346C43.9212 58.7565 43.7124 59.1505 43.566 59.6142C43.4196 60.0778 43.3452 60.5895 43.3452 61.1469C43.3452 61.7547 43.4196 62.2976 43.566 62.7757C43.7124 63.2537 43.9236 63.6573 44.1996 63.9912C44.4756 64.3252 44.8092 64.5798 45.2028 64.7576C45.5964 64.9354 46.038 65.0267 46.53 65.0267C46.9188 65.0267 47.2836 64.9954 47.6244 64.933C47.9652 64.8705 48.2868 64.7672 48.5892 64.6231V63.4651C48.2868 63.6381 47.9892 63.7726 47.6964 63.8639C47.4036 63.9552 47.1012 64.0009 46.7892 64.0009C46.1076 64.0009 45.5676 63.787 45.1692 63.357C44.7708 62.927 44.5524 62.3216 44.5092 61.5408H49.1076V60.9907C49.1076 59.8616 48.8628 58.9823 48.3756 58.3553H48.378ZM44.538 60.6424C44.6076 59.9193 44.802 59.3619 45.1212 58.9703C45.4404 58.5788 45.8388 58.3842 46.314 58.3842C46.7892 58.3842 47.1972 58.5764 47.4852 58.9631C47.7732 59.3499 47.9412 59.9097 47.9844 60.6424H44.538Z" fill="#999595"/>
<path d="M52.332 57.8824C52.0128 58.161 51.7608 58.5622 51.5808 59.0835V57.5941H50.4937V64.8588H51.6984V61.212C51.6984 60.3928 51.8496 59.7706 52.152 59.3454C52.4544 58.9202 52.8768 58.7088 53.4216 58.7088C53.5776 58.7088 53.7456 58.7376 53.928 58.7953L53.9664 57.5076C53.7672 57.4788 53.5992 57.4644 53.46 57.4644C53.028 57.4644 52.6536 57.6037 52.332 57.8848V57.8824Z" fill="#999595"/>
<path d="M14.1157 58.3553C13.6286 57.7283 12.9614 57.416 12.1142 57.416C11.6654 57.416 11.255 57.5049 10.883 57.6827C10.511 57.8605 10.1918 58.1127 9.92296 58.4346C9.65656 58.7565 9.44777 59.1505 9.30137 59.6142C9.15497 60.0778 9.08057 60.5895 9.08057 61.1469C9.08057 61.7547 9.15497 62.2976 9.30137 62.7757C9.44777 63.2537 9.65896 63.6573 9.93496 63.9912C10.211 64.3252 10.547 64.5798 10.9382 64.7576C11.3318 64.9354 11.7734 65.0267 12.2654 65.0267C12.6542 65.0267 13.019 64.9954 13.3598 64.933C13.7006 64.8705 14.0221 64.7672 14.3245 64.6231V63.4651C14.0221 63.6381 13.7246 63.7726 13.4294 63.8639C13.1366 63.9552 12.8342 64.0009 12.5222 64.0009C11.8406 64.0009 11.3006 63.787 10.9022 63.357C10.5038 62.927 10.2854 62.3216 10.2422 61.5408H14.8405V60.9907C14.8405 59.8616 14.5957 58.9823 14.1085 58.3553H14.1157ZM10.2758 60.6424C10.3454 59.9193 10.5398 59.3619 10.859 58.9703C11.1782 58.5788 11.5766 58.3842 12.0518 58.3842C12.527 58.3842 12.935 58.5764 13.223 58.9631C13.5134 59.3499 13.679 59.9097 13.7222 60.6424H10.2758Z" fill="#999595"/>
<path d="M5.11678 54.812H3.58799L0 64.8538H1.2696L2.13839 62.2785H6.41278L7.28158 64.8538H8.64237L5.11918 54.8096L5.11678 54.812ZM2.53919 61.1494L4.32719 56.042L6.05038 61.1494H2.53919Z" fill="#999595"/>
<path d="M19.2012 57.4614C18.7692 57.4614 18.3948 57.6008 18.0732 57.8818C17.754 58.1605 17.5044 58.5617 17.322 59.083V57.5936H16.2324V64.8583H17.4372V61.2115C17.4372 60.3923 17.5884 59.7701 17.8908 59.3449C18.1932 58.9197 18.6156 58.7082 19.1604 58.7082C19.3164 58.7082 19.4844 58.7371 19.6644 58.7947L19.7028 57.5071C19.5036 57.4782 19.3356 57.4638 19.1964 57.4638L19.2012 57.4614Z" fill="#999595"/>
<path d="M70.9402 61.4837C70.789 61.3107 70.6018 61.1497 70.3762 60.9984C70.1506 60.8494 69.8938 60.6957 69.5986 60.5419C69.193 60.3305 68.881 60.1359 68.665 59.963C68.449 59.79 68.341 59.5618 68.341 59.2831C68.341 59.0429 68.437 58.8435 68.6266 58.6897C68.8162 58.536 69.085 58.4591 69.4306 58.4591C70.0018 58.4591 70.549 58.5984 71.077 58.8795L71.1298 57.7792C70.5778 57.5967 70.0378 57.5054 69.5098 57.5054C68.7586 57.5054 68.1754 57.6855 67.7602 58.0483C67.345 58.4111 67.1386 58.8651 67.1386 59.4152C67.1386 59.6651 67.177 59.8909 67.2538 60.0879C67.333 60.2849 67.4458 60.4699 67.597 60.638C67.7482 60.8062 67.933 60.9696 68.1538 61.1233C68.3746 61.2771 68.6314 61.4308 68.9242 61.587C69.2962 61.7888 69.5842 61.9785 69.793 62.1515C69.9994 62.3245 70.105 62.5719 70.105 62.889C70.105 63.2062 69.9922 63.4512 69.769 63.6482C69.5434 63.8452 69.2242 63.9461 68.8114 63.9461C68.5522 63.9461 68.2762 63.9052 67.9834 63.8236C67.6906 63.7419 67.393 63.6194 67.0906 63.456L67.0522 64.5851C67.3282 64.71 67.6114 64.8013 67.8994 64.8614C68.1898 64.919 68.4754 64.9478 68.761 64.9478C69.5986 64.9478 70.249 64.7485 70.7098 64.3473C71.173 63.9461 71.4034 63.4272 71.4034 62.7905C71.4034 62.5215 71.365 62.2788 71.2882 62.0674C71.209 61.856 71.0962 61.6614 70.945 61.4885L70.9402 61.4837Z" fill="#999595"/>
<path d="M25.9895 58.4313C25.7135 58.1046 25.3751 57.8523 24.9719 57.6794C24.5711 57.5064 24.1247 57.4199 23.6303 57.4199C23.1383 57.4199 22.6919 57.5064 22.2959 57.6794C21.8999 57.8523 21.5615 58.1046 21.2855 58.4313C21.0095 58.7604 20.7959 59.1592 20.6447 59.6325C20.4935 60.1057 20.4167 60.6367 20.4167 61.2252C20.4167 61.8138 20.4935 62.3447 20.6447 62.818C20.7959 63.2913 21.0095 63.69 21.2855 64.0192C21.5615 64.3483 21.8999 64.5981 22.2959 64.7711C22.6919 64.9441 23.1383 65.0306 23.6303 65.0306C24.1223 65.0306 24.5663 64.9441 24.9647 64.7711C25.3607 64.5981 25.7015 64.3459 25.9823 64.0192C26.2631 63.69 26.4791 63.2913 26.6303 62.818C26.7815 62.3447 26.8559 61.8138 26.8559 61.2252C26.8559 60.6367 26.7791 60.1057 26.6303 59.6325C26.4791 59.1592 26.2655 58.7604 25.9895 58.4313ZM25.0511 63.2216C24.6935 63.7141 24.2231 63.9591 23.6447 63.9591C23.3591 63.9591 23.0999 63.8942 22.8623 63.7645C22.6247 63.6348 22.4183 63.4474 22.2455 63.2072C22.0727 62.9669 21.9383 62.6763 21.8447 62.3399C21.7487 62.0012 21.7031 61.6264 21.7031 61.2108C21.7031 60.7952 21.7511 60.4181 21.8447 60.0745C21.9407 59.731 22.0727 59.4403 22.2455 59.1977C22.4183 58.9574 22.6247 58.77 22.8623 58.6403C23.0999 58.5106 23.3615 58.4457 23.6447 58.4457C24.2231 58.4457 24.6911 58.6932 25.0511 59.1832C25.4087 59.6757 25.5887 60.3508 25.5887 61.2084C25.5887 62.0661 25.4087 62.7267 25.0511 63.2192V63.2216Z" fill="#999595"/>
<path d="M64.9906 58.4313C64.7146 58.1046 64.3761 57.8523 63.9729 57.6794C63.5722 57.5064 63.1258 57.4199 62.6314 57.4199C62.1394 57.4199 61.6954 57.5064 61.297 57.6794C60.901 57.8523 60.5626 58.1046 60.2866 58.4313C60.0106 58.7604 59.797 59.1592 59.6458 59.6325C59.4946 60.1057 59.4202 60.6367 59.4202 61.2252C59.4202 61.8138 59.4946 62.3447 59.6458 62.818C59.797 63.2913 60.0106 63.69 60.2866 64.0192C60.5626 64.3483 60.8986 64.5981 61.297 64.7711C61.6954 64.9441 62.1394 65.0306 62.6314 65.0306C63.1234 65.0306 63.5674 64.9441 63.9658 64.7711C64.3617 64.5981 64.7026 64.3459 64.9834 64.0192C65.2642 63.69 65.4801 63.2913 65.6313 62.818C65.7825 62.3447 65.8569 61.8138 65.8569 61.2252C65.8569 60.6367 65.7825 60.1057 65.6313 59.6325C65.4801 59.1592 65.2666 58.7604 64.9906 58.4313ZM64.0498 63.2216C63.6922 63.7141 63.2218 63.9591 62.6434 63.9591C62.3578 63.9591 62.0962 63.8942 61.8586 63.7645C61.621 63.6348 61.417 63.4474 61.2442 63.2072C61.0714 62.9669 60.937 62.6763 60.8434 62.3399C60.7474 62.0012 60.7018 61.6264 60.7018 61.2108C60.7018 60.7952 60.7498 60.4181 60.8434 60.0745C60.9394 59.731 61.0714 59.4403 61.2442 59.1977C61.417 58.9574 61.621 58.77 61.8586 58.6403C62.0962 58.5106 62.3578 58.4457 62.6434 58.4457C63.2218 58.4457 63.6898 58.6932 64.0498 59.1832C64.4074 59.6757 64.5873 60.3508 64.5873 61.2084C64.5873 62.0661 64.4074 62.7267 64.0498 63.2192V63.2216Z" fill="#999595"/>
<path d="M143.714 57.8514C143.174 57.2436 142.307 56.9409 141.115 56.9409C140.575 56.9409 140.071 56.9818 139.605 57.0634C139.139 57.1451 138.695 57.2772 138.278 57.4622L138.319 59.1415C139.156 58.7355 139.864 58.5337 140.443 58.5337C141.021 58.5337 141.458 58.6418 141.755 58.858C142.053 59.0742 142.202 59.3865 142.202 59.7925V59.8934H141.237C139.934 59.8934 138.967 60.088 138.338 60.4796C137.709 60.8712 137.395 61.4862 137.395 62.3246C137.395 63.0381 137.608 63.6098 138.038 64.0399C138.467 64.4699 139.048 64.6837 139.785 64.6837C140.354 64.6837 140.843 64.5876 141.259 64.3954C141.674 64.2032 142.029 63.8837 142.327 63.4393L142.382 64.5948H144.52V60.7054C144.52 59.4129 144.249 58.4616 143.709 57.8538L143.714 57.8514ZM142.204 61.4261C142.204 61.9474 142.06 62.3558 141.77 62.6561C141.482 62.954 141.117 63.1053 140.68 63.1053C140.392 63.1053 140.164 63.0237 139.996 62.8603C139.828 62.697 139.744 62.4879 139.744 62.2381C139.744 61.8609 139.91 61.5967 140.241 61.4429C140.572 61.2892 141.086 61.2123 141.784 61.2123H142.204V61.4285V61.4261Z" fill="#999595"/>
<path d="M126.655 53.7397H124.195V55.8082H126.655V53.7397Z" fill="#999595"/>
<path d="M96.2913 58.3595C95.6481 57.4226 94.8249 56.9565 93.8193 56.9565C93.3441 56.9565 92.9097 57.0454 92.5137 57.2232C92.1177 57.401 91.7769 57.658 91.4865 57.9896C91.1985 58.3235 90.9729 58.7247 90.8097 59.1979C90.6465 59.6712 90.5649 60.1973 90.5649 60.7763C90.5649 61.3552 90.6441 61.8766 90.8025 62.3402C90.9609 62.8039 91.1793 63.1954 91.4601 63.5198C91.7385 63.8441 92.0721 64.0939 92.4585 64.2717C92.8449 64.4495 93.2721 64.5384 93.7377 64.5384C94.7241 64.5384 95.5305 64.1276 96.1545 63.3084V64.0026C96.1545 64.6393 95.9673 65.1245 95.5953 65.4561C95.2233 65.79 94.6833 65.9558 93.9753 65.9558C93.5841 65.9558 93.1881 65.9053 92.7873 65.8044C92.3865 65.7035 91.9857 65.5522 91.5849 65.348L91.4457 67.2434C92.3025 67.5725 93.2625 67.7359 94.3233 67.7359C97.1553 67.7359 98.5713 66.3569 98.5713 63.5966V57.1559H96.2937V58.3571L96.2913 58.3595ZM95.6697 62.1144C95.3937 62.4483 95.0385 62.6141 94.6017 62.6141C94.1649 62.6141 93.8097 62.4483 93.5385 62.1144C93.2673 61.7805 93.1329 61.3264 93.1329 60.7475C93.1329 60.1685 93.2673 59.7096 93.5385 59.3733C93.8097 59.0346 94.1625 58.8664 94.6017 58.8664C95.0409 58.8664 95.3961 59.0346 95.6697 59.3733C95.9433 59.712 96.0825 60.1685 96.0825 60.7475C96.0825 61.3264 95.9457 61.7829 95.6697 62.1144Z" fill="#999595"/>
<path d="M103.686 56.9526C103.107 56.9526 102.586 57.0414 102.121 57.2192C101.655 57.397 101.259 57.6516 100.933 57.9784C100.606 58.3075 100.354 58.7039 100.179 59.1723C100.002 59.6408 99.9128 60.1645 99.9128 60.7435C99.9128 61.3705 100.006 61.935 100.191 62.4371C100.378 62.9392 100.65 63.3644 101.01 63.7104C101.367 64.0587 101.806 64.3254 102.322 64.5128C102.838 64.7001 103.429 64.7938 104.089 64.7938C105.03 64.7938 105.901 64.6449 106.702 64.3446V62.5212C105.846 62.9368 105.054 63.1434 104.326 63.1434C103.712 63.1434 103.23 63.0113 102.879 62.7446C102.531 62.4804 102.332 62.1056 102.286 61.6227H107.331V61.0005C107.331 59.6984 107.017 58.6967 106.388 57.9976C105.759 57.2985 104.859 56.9478 103.686 56.9478V56.9526ZM102.26 60.1237C102.315 59.6024 102.471 59.2036 102.728 58.9297C102.985 58.6534 103.309 58.5165 103.7 58.5165C104.091 58.5165 104.42 58.6534 104.686 58.9297C104.953 59.2036 105.109 59.6024 105.154 60.1237H102.262H102.26Z" fill="#999595"/>
<path d="M122.469 63.0328C122.371 63.052 122.284 63.0616 122.21 63.0616C121.783 63.0616 121.483 62.9487 121.315 62.7229C121.147 62.4971 121.063 62.1079 121.063 61.5577V58.9968H122.822V57.159H121.06V54.627L118.739 55.4365V57.159H117.218V58.9968H118.6V61.6298C118.6 62.1799 118.651 62.6556 118.754 63.0544C118.857 63.4556 119.02 63.7823 119.243 64.0394C119.467 64.294 119.755 64.4862 120.103 64.6111C120.453 64.736 120.873 64.7985 121.367 64.7985C121.862 64.7985 122.342 64.736 122.863 64.6111L122.819 62.9463C122.68 62.9847 122.56 63.0136 122.464 63.0328H122.469Z" fill="#999595"/>
<path d="M133.376 56.9531C132.807 56.9531 132.303 57.0853 131.859 57.3519C131.417 57.6162 131.055 57.9957 130.776 58.4882V57.1573H128.542V64.595H131.002V61.0203C131.002 60.3837 131.134 59.8936 131.4 59.5525C131.667 59.2089 132.003 59.0384 132.413 59.0384C133.224 59.0384 133.63 59.6173 133.63 60.7753V64.595H136.076V60.2395C136.076 59.1585 135.845 58.3417 135.384 57.7867C134.924 57.2318 134.254 56.9555 133.38 56.9555L133.376 56.9531Z" fill="#999595"/>
<path d="M113.493 56.9531C112.924 56.9531 112.42 57.0853 111.976 57.3519C111.535 57.6162 111.172 57.9957 110.894 58.4882V57.1573H108.66V64.595H111.12V61.0203C111.12 60.3837 111.252 59.8936 111.518 59.5525C111.784 59.2089 112.12 59.0384 112.531 59.0384C113.342 59.0384 113.748 59.6173 113.748 60.7753V64.595H116.193V60.2395C116.193 59.1585 115.963 58.3417 115.502 57.7867C115.041 57.2318 114.372 56.9555 113.498 56.9555L113.493 56.9531Z" fill="#999595"/>
<path d="M126.655 57.1543H124.195V64.592H126.655V57.1543Z" fill="#999595"/>
<path d="M89.2524 56.9531C88.2828 56.9531 87.5532 57.4937 87.0588 58.5747V57.1573H84.8652V64.595H87.3252V61.4263C87.3252 59.8816 87.918 59.1104 89.0988 59.1104C89.238 59.1104 89.3724 59.12 89.4972 59.1393C89.622 59.1585 89.7468 59.1921 89.8668 59.2402L89.9916 57.0396C89.8524 57.0204 89.718 57.0012 89.5932 56.982C89.466 56.9627 89.3532 56.9531 89.25 56.9531H89.2524Z" fill="#999595"/>
<path d="M77.5003 54.5459L73.8259 64.5901H76.3819L77.1091 62.464H80.8387L81.5227 64.5901H84.2899L80.6155 54.5459H77.5003ZM77.7523 60.5518L79.0099 56.7897L80.2243 60.5518H77.7523Z" fill="#999595"/>
<path d="M153.093 59.7247C153.712 58.8526 154.022 58.0142 154.022 57.2142C154.022 56.7794 153.943 56.383 153.787 56.0203C153.631 55.6575 153.405 55.3452 153.115 55.0785C152.824 54.8143 152.476 54.6053 152.076 54.4563C151.672 54.3074 151.224 54.2329 150.724 54.2329C149.644 54.2329 148.576 54.4395 147.523 54.8551L147.592 56.9235C148.545 56.4407 149.376 56.2004 150.088 56.2004C150.523 56.2004 150.861 56.3206 151.106 56.5632C151.351 56.8034 151.473 57.1229 151.473 57.5193C151.473 58.0983 151.12 58.7902 150.412 59.595C149.704 60.4021 148.658 61.3919 147.273 62.5691V64.5078H154.149V62.6267H150.324C151.552 61.5649 152.476 60.5991 153.096 59.7247H153.093Z" fill="#999595"/>
<path d="M159.25 54.2192C158.038 54.2192 157.123 54.6613 156.504 55.5429C155.885 56.4246 155.575 57.7411 155.575 59.4876C155.575 61.2341 155.885 62.5458 156.504 63.425C157.123 64.3019 158.038 64.7415 159.25 64.7415C160.462 64.7415 161.376 64.3043 161.995 63.4323C162.615 62.5602 162.924 61.2437 162.924 59.49C162.924 57.7363 162.615 56.4294 161.995 55.5453C161.376 54.6637 160.462 54.2216 159.25 54.2216V54.2192ZM160.212 62.0701C160.013 62.6443 159.691 62.9302 159.25 62.9302C158.808 62.9302 158.47 62.6419 158.273 62.0701C158.074 61.496 157.975 60.6263 157.975 59.4588C157.975 58.2912 158.076 57.424 158.28 56.8546C158.484 56.2853 158.806 56.0018 159.25 56.0018C159.694 56.0018 160.015 56.2853 160.212 56.8546C160.411 57.424 160.51 58.2912 160.51 59.4588C160.51 60.6263 160.411 61.496 160.212 62.0701Z" fill="#999595"/>
<path d="M179.071 55.5429C178.452 54.6613 177.538 54.2192 176.326 54.2192C175.114 54.2192 174.199 54.6613 173.58 55.5429C172.961 56.4246 172.651 57.7411 172.651 59.4876C172.651 61.2341 172.961 62.5458 173.58 63.425C174.199 64.3019 175.114 64.7415 176.326 64.7415C177.538 64.7415 178.452 64.3043 179.071 63.4323C179.69 62.5602 180 61.2437 180 59.49C180 57.7363 179.69 56.4294 179.071 55.5453V55.5429ZM177.29 62.0701C177.091 62.6443 176.77 62.9302 176.328 62.9302C175.886 62.9302 175.55 62.6419 175.351 62.0701C175.152 61.496 175.054 60.6263 175.054 59.4588C175.054 58.2912 175.157 57.424 175.358 56.8546C175.562 56.2853 175.884 56.0018 176.328 56.0018C176.772 56.0018 177.094 56.2853 177.29 56.8546C177.49 57.424 177.588 58.2912 177.588 59.4588C177.588 60.6263 177.49 61.496 177.29 62.0701Z" fill="#999595"/>
<path d="M167.787 54.2192C166.577 54.2192 165.66 54.6613 165.041 55.5429C164.422 56.4246 164.112 57.7411 164.112 59.4876C164.112 61.2341 164.422 62.5458 165.041 63.425C165.66 64.3019 166.575 64.7415 167.787 64.7415C168.999 64.7415 169.913 64.3043 170.532 63.4323C171.151 62.5602 171.461 61.2437 171.461 59.49C171.461 57.7363 171.151 56.4294 170.532 55.5453C169.913 54.6637 168.999 54.2216 167.787 54.2216V54.2192ZM168.751 62.0701C168.552 62.6443 168.231 62.9302 167.787 62.9302C167.343 62.9302 167.009 62.6419 166.81 62.0701C166.611 61.496 166.512 60.6263 166.512 59.4588C166.512 58.2912 166.613 57.424 166.817 56.8546C167.021 56.2853 167.345 56.0018 167.787 56.0018C168.228 56.0018 168.552 56.2853 168.751 56.8546C168.951 57.424 169.049 58.2912 169.049 59.4588C169.049 60.6263 168.951 61.496 168.751 62.0701Z" fill="#999595"/>
</svg>
