<svg width="168" height="153" viewBox="0 0 168 153" fill="none" xmlns="http://www.w3.org/2000/svg">
<g clip-path="url(#clip0_829_469)">
<path d="M14.2861 60.9465L56.2059 54.3238V54.2869L14.2861 60.9465Z" fill="#FBFBFB"/>
<path d="M89.853 36.548H89.8901L100.99 29.4575L89.853 36.548Z" fill="#FBFBFB"/>
<path d="M113.029 20.5206L56.7122 0L56.5764 0.0984794L56.4405 0.0123099L11.8414 19.6343L11.6191 19.9667V61.685L11.9278 61.9558V62.0543L37.8205 65.9442H37.9316L84.1607 58.9768V58.9399L84.4817 58.6198V39.6995L85.7782 39.1332H85.8276L105.485 30.5163L113.029 27.2172L113.251 26.8849V20.8653L113.017 20.5206H113.029ZM56.2059 54.3237L14.2862 60.9464L13.0885 61.1311L12.36 61.2419V20.2129L56.2059 0.910934V54.3237ZM104.979 29.9377L89.8776 36.5358H89.8405L100.978 29.4576L104.966 26.9095V29.9377H104.979ZM112.523 26.6387L105.719 29.6177V25.8385L105.472 25.4938L84.2471 17.7263L83.7532 18.071V58.2013L56.9468 54.336V0.874004L112.523 21.1238V26.6387Z" fill="#FBFBFB"/>
<path d="M85.7905 39.1208L85.8399 39.0962H85.7905V39.1208Z" fill="#FBFBFB"/>
<path d="M40.8208 78.0818H0.370425L0 77.7125V63.4576L0.321035 63.0883L9.28532 61.8081L9.70513 62.1774V63.9131L40.8826 68.1108L41.2036 68.4801V77.7248L40.8332 78.0941L40.8208 78.0818ZM0.74085 77.3555H40.4504V68.8001L9.27297 64.6025L8.95193 64.2332V62.6083L0.728502 63.7777V77.3432L0.74085 77.3555Z" fill="#FBFBFB"/>
<path d="M165.21 42.3216L127.624 28.5837L127.13 28.9284V65.8336L127.451 66.1905L165.024 70.8437L165.432 70.4867V42.8386V42.6663L165.197 42.3216H165.21ZM164.691 70.0805L127.858 65.5258V59.654L164.703 43.4172V70.0805H164.691Z" fill="#FBFBFB"/>
<path d="M167.988 40.8935L167.753 40.5488L125.056 25.0137L124.883 25.1368L124.772 25.0629L86.6672 41.5213L86.445 41.8536V60.2077L43.7597 67.0397L43.451 67.3967V79.9775H20.0154L19.645 80.3468V90.1331L20.0154 90.5024H100.966H141.293L141.663 90.1331V78.2664L167.741 73.7856V73.6994L168.05 73.4286V40.8688L167.988 40.8935ZM124.537 67.8891L101.077 70.9666L100.879 70.9912L100.558 71.3605V89.7885H20.3488V80.7407H43.7967L44.1671 80.3714V67.7291L86.8401 60.8971L87.1488 60.5401V42.1121L124.512 25.9615V67.8891H124.537ZM161.271 72.2838L125.29 67.8768V25.8877L167.247 41.152V73.0347L161.271 72.2961V72.2838Z" fill="#FBFBFB"/>
<path d="M34.7951 148.347C35.4495 148.347 36.0175 148.679 36.2891 149.43L37.2275 149.085C36.8077 147.99 35.8816 147.461 34.7951 147.448C33.3751 147.448 32.165 148.347 32.165 150.206C32.165 152.064 33.3751 152.975 34.7951 152.963C35.8816 152.963 36.8077 152.421 37.2275 151.326L36.2891 150.981C36.0175 151.732 35.4618 152.064 34.7951 152.064C33.9307 152.064 33.1899 151.511 33.1899 150.193C33.1899 148.876 33.9307 148.322 34.7951 148.335V148.347Z" fill="#FBFBFB"/>
<path d="M41.5864 147.448C40.154 147.448 38.9316 148.347 38.9316 150.206C38.9316 152.064 40.1664 152.963 41.5864 152.963C43.0063 152.963 44.2411 152.064 44.2411 150.206C44.2411 148.347 43.0063 147.461 41.5864 147.448ZM41.5864 152.077C40.7097 152.077 39.9565 151.523 39.9565 150.206C39.9565 148.889 40.7097 148.335 41.5864 148.347C42.463 148.347 43.2162 148.901 43.2162 150.206C43.2162 151.511 42.463 152.077 41.5864 152.077Z" fill="#FBFBFB"/>
<path d="M49.2171 147.436C48.4022 147.436 47.649 147.855 47.2168 148.827V147.522H46.1426V152.914H47.2168V150.895C47.2168 148.421 48.3528 148.335 48.822 148.335C49.5011 148.335 49.6493 149.086 49.6493 149.873V152.914H50.7358V149.873C50.7358 148.864 50.7358 147.436 49.2171 147.436Z" fill="#FBFBFB"/>
<path d="M53.6743 149.085C53.6743 148.458 54.1682 148.248 54.7856 148.248C55.403 148.248 55.8475 148.445 55.971 148.999L56.9464 148.716C56.7118 147.522 55.3289 147.448 54.7856 147.448C54.2176 147.448 52.6125 147.534 52.6125 149.085C52.6125 151.35 56.0204 149.984 56.0204 151.19C56.0204 151.843 55.4153 152.114 54.7856 152.114C54.1559 152.114 53.6373 151.831 53.5385 151.24L52.5137 151.461C52.6865 152.852 54.2423 152.975 54.7856 152.975C55.3783 152.975 57.0822 152.84 57.0822 151.19C57.0822 148.889 53.6743 150.341 53.6743 149.085Z" fill="#FBFBFB"/>
<path d="M60.6136 146.008L59.5394 146.033V147.461H58.6504V148.31H59.5394V151.535C59.5394 152.594 59.6999 152.914 61.0458 152.914H61.5027V151.929H61.0458C60.7865 151.929 60.6136 151.855 60.6136 151.535V148.31H61.5027V147.461H60.6136V146.02V146.008Z" fill="#FBFBFB"/>
<path d="M64.4787 148.507V147.51H63.3921V152.901H64.4787V150.883C64.4787 148.913 65.0837 148.371 66.3308 148.371V147.424H66.3061C65.4171 147.424 64.8244 147.744 64.4787 148.507Z" fill="#FBFBFB"/>
<path d="M71.6645 149.529C71.6645 152.003 70.4915 152.089 70.1334 152.089C69.4543 152.089 69.2814 151.338 69.2814 150.55V147.51H68.1948V150.55C68.1948 151.56 68.2195 152.988 69.7259 152.988C70.5655 152.988 71.257 152.594 71.6645 151.707V152.902H72.751V147.51H71.6645V149.529Z" fill="#FBFBFB"/>
<path d="M77.2706 148.347C77.9251 148.347 78.493 148.679 78.7647 149.43L79.7031 149.085C79.2833 147.99 78.3572 147.461 77.2706 147.448C75.8507 147.448 74.6406 148.347 74.6406 150.206C74.6406 152.064 75.8507 152.975 77.2706 152.963C78.3572 152.963 79.2833 152.421 79.7031 151.326L78.7647 150.981C78.493 151.732 77.9374 152.064 77.2706 152.064C76.4063 152.064 75.6655 151.511 75.6655 150.193C75.6655 148.876 76.4063 148.322 77.2706 148.335V148.347Z" fill="#FBFBFB"/>
<path d="M84.0246 148.347C84.679 148.347 85.247 148.679 85.5186 149.43L86.457 149.085C86.0372 147.99 85.1111 147.461 84.0246 147.448C82.6046 147.448 81.3945 148.347 81.3945 150.206C81.3945 152.064 82.6046 152.975 84.0246 152.963C85.1111 152.963 86.0372 152.421 86.457 151.326L85.5186 150.981C85.247 151.732 84.6913 152.064 84.0246 152.064C83.1602 152.064 82.4194 151.511 82.4194 150.193C82.4194 148.876 83.1602 148.322 84.0246 148.335V148.347Z" fill="#FBFBFB"/>
<path d="M89.4448 147.522H88.3706V152.914H89.4448V147.522Z" fill="#FBFBFB"/>
<path d="M89.4575 145.368H88.3462V146.562H89.4575V145.368Z" fill="#FBFBFB"/>
<path d="M94.0136 147.448C92.5813 147.448 91.3589 148.347 91.3589 150.206C91.3589 152.064 92.5936 152.963 94.0136 152.963C95.4336 152.963 96.6683 152.064 96.6683 150.206C96.6683 148.347 95.4336 147.461 94.0136 147.448ZM94.0136 152.077C93.1369 152.077 92.3837 151.523 92.3837 150.206C92.3837 148.889 93.1369 148.335 94.0136 148.347C94.8903 148.347 95.6435 148.901 95.6435 150.206C95.6435 151.511 94.8903 152.077 94.0136 152.077Z" fill="#FBFBFB"/>
<path d="M101.644 147.436C100.829 147.436 100.076 147.855 99.6441 148.827V147.522H98.5698V152.914H99.6441V150.895C99.6441 148.421 100.78 148.335 101.249 148.335C101.928 148.335 102.077 149.086 102.077 149.873V152.914H103.163V149.873C103.163 148.864 103.163 147.436 101.644 147.436Z" fill="#FBFBFB"/>
<path d="M107.584 147.448C106.164 147.448 104.954 148.347 104.954 150.206C104.954 152.064 106.164 152.975 107.584 152.963C108.658 152.963 109.646 152.446 110.078 151.4L109.152 151.03C108.855 151.744 108.238 152.052 107.584 152.064C106.818 152.064 106.151 151.634 106.003 150.637H110.177C110.201 150.501 110.214 150.353 110.214 150.206C110.214 148.347 109.004 147.461 107.584 147.448ZM106.003 149.75C106.164 148.765 106.83 148.335 107.584 148.347C108.337 148.347 109.004 148.765 109.164 149.75H106.003Z" fill="#FBFBFB"/>
<path d="M113.115 149.085C113.115 148.458 113.609 148.248 114.227 148.248C114.844 148.248 115.288 148.445 115.412 148.999L116.387 148.716C116.153 147.522 114.77 147.448 114.227 147.448C113.659 147.448 112.053 147.534 112.053 149.085C112.053 151.35 115.461 149.984 115.461 151.19C115.461 151.843 114.856 152.114 114.227 152.114C113.597 152.114 113.078 151.831 112.979 151.24L111.955 151.461C112.127 152.852 113.683 152.975 114.227 152.975C114.819 152.975 116.523 152.84 116.523 151.19C116.523 148.889 113.115 150.341 113.115 149.085Z" fill="#FBFBFB"/>
<path d="M127.439 95.0942H119.573V102.936H127.439V95.0942Z" fill="#E62633"/>
<path d="M64.1574 116.292H56.1562V136.443H64.1574V116.292Z" fill="#FBFBFB"/>
<path d="M87.4943 105.804H79.4932V136.443H87.4943V105.804Z" fill="#FBFBFB"/>
<path d="M74.2577 105.718H56.1562V113.694H74.2577V105.718Z" fill="#FBFBFB"/>
<path d="M35.4249 105.816C26.9669 105.816 20.1017 112.648 20.1017 121.093C20.1017 121.413 20.0894 144.654 20.0894 144.654H28.1523V134.535C30.3254 135.704 32.8073 136.369 35.4373 136.369C43.9077 136.369 50.7605 129.525 50.7605 121.093C50.7605 112.66 43.9077 105.816 35.4373 105.816H35.4249ZM35.4249 129.439C30.807 129.439 27.0533 125.696 27.0533 121.093C27.0533 116.489 30.807 112.746 35.4249 112.746C40.0429 112.746 43.7965 116.476 43.7965 121.093C43.7965 125.709 40.0553 129.439 35.4249 129.439Z" fill="#FBFBFB"/>
<path d="M107.954 129.365C103.336 129.365 99.5824 125.623 99.5824 121.019C99.5824 116.415 103.336 112.673 107.954 112.673C111.671 112.673 114.794 115.073 115.881 118.409H123.043C121.82 111.22 115.535 105.742 107.966 105.742C99.5083 105.742 92.6431 112.574 92.6431 121.019C92.6431 129.463 99.5083 136.295 107.966 136.295C115.548 136.295 121.808 130.817 123.043 123.628H115.881C114.794 126.952 111.671 129.365 107.954 129.365Z" fill="#FBFBFB"/>
</g>
<defs>
<clipPath id="clip0_829_469">
<rect width="168" height="153" fill="white"/>
</clipPath>
</defs>
</svg>
