<svg width="180" height="50" viewBox="0 0 180 50" fill="none" xmlns="http://www.w3.org/2000/svg">
<g clip-path="url(#clip0_613_213)">
<path d="M46.145 8.83975C49.7574 8.90505 53.382 8.90914 57.0189 8.84791C58.4924 8.82342 59.5211 8.97036 60.1048 9.29283C62.4722 10.599 62.6722 13.0767 61.6967 15.4074C60.5048 18.2443 58.5006 20.1382 55.6882 21.0852C54.68 21.424 53.3208 21.5873 51.6146 21.575C44.7449 21.522 38.2671 21.5179 32.1811 21.5628C31.8505 21.5628 31.5811 21.3015 31.5811 20.9709C31.5811 20.9015 31.5933 20.8281 31.6137 20.7627L32.9893 16.9177C33.1362 16.5095 33.524 16.236 33.9567 16.2401C39.7569 16.2564 45.4306 16.2523 50.9819 16.2319C51.6023 16.2319 52.1289 15.8768 52.5656 15.1666C53.1126 14.2726 52.4677 13.3951 51.537 13.3828C48.2267 13.3379 44.6878 13.342 40.9243 13.3991C39.2712 13.4236 38.1487 13.2685 37.5527 12.9297C35.4833 11.7501 35.0465 9.53365 35.8425 7.36213C37.3731 3.17826 40.81 0.659777 45.2306 0.676104C51.9289 0.704677 58.7088 0.708759 65.5744 0.696513C65.8928 0.696513 66.154 0.953668 66.154 1.27205C66.154 1.33736 66.1418 1.40675 66.1213 1.46798L64.7499 5.28448C64.5947 5.71715 64.1825 6.00288 63.7253 6.00288C58.2843 6.00288 52.6432 6.00288 46.794 6.00288C45.9694 6.00288 45.251 6.56209 45.0347 7.36621C45.0061 7.47642 44.9939 7.59887 45.0021 7.72541C45.0347 8.45605 45.4143 8.8275 46.145 8.83975Z" fill="#999595"/>
<path d="M77.8322 8.85186C81.4651 8.90493 85.2775 8.90084 89.2736 8.83962C93.3146 8.77839 94.6167 12.1459 93.184 15.4848C92.0125 18.2237 90.0818 20.0728 87.3959 21.0279C86.2857 21.4239 84.7183 21.6116 82.6896 21.5871C76.8485 21.5177 70.5095 21.5055 63.6765 21.5504C63.452 21.5504 63.2806 21.4606 63.1622 21.2728C63.0846 21.1504 63.0724 21.0034 63.1336 20.8279C63.5744 19.5544 64.0153 18.2972 64.4602 17.0604C64.6561 16.5175 65.0439 16.244 65.6194 16.244H82.2528C83.0855 16.244 83.7019 15.8848 84.1019 15.1583C84.6162 14.2317 83.9876 13.3908 83.0284 13.3786C79.4854 13.3419 75.7097 13.3459 71.7054 13.3949C70.6727 13.4072 69.836 13.2602 69.1992 12.9541C67.0236 11.9051 66.5991 9.54577 67.3542 7.39874C68.4277 4.3537 70.4319 2.2883 73.3708 1.20254C74.3464 0.839257 75.6689 0.663739 77.3383 0.671903C83.9713 0.708639 90.5593 0.712721 97.1107 0.692312C97.4291 0.692312 97.6862 0.949466 97.6862 1.26785C97.6862 1.33724 97.674 1.40255 97.6535 1.46378L96.2576 5.33334C96.1106 5.73744 95.7269 6.00684 95.2943 6.00684C89.7307 6.00684 84.0978 6.00275 78.3914 5.99867C77.5302 5.99867 76.922 6.43543 76.5669 7.3171C76.5465 7.37016 76.5342 7.43139 76.5301 7.49262C76.5016 8.38654 76.9383 8.83962 77.8322 8.85186Z" fill="#999595"/>
<path d="M94.7513 20.7219L101.833 1.13322C101.923 0.88831 102.152 0.725037 102.413 0.725037L109.789 0.692383C110.132 0.692383 110.413 0.965865 110.413 1.30874C110.413 1.38221 110.401 1.45568 110.377 1.52507L103.295 21.1096C103.205 21.3545 102.976 21.5178 102.715 21.5178L95.3391 21.5546C94.9963 21.5546 94.7146 21.2811 94.7146 20.9382C94.7146 20.8647 94.7268 20.7913 94.7513 20.7219Z" fill="#999595"/>
<path d="M120.993 6.98641C120.422 7.86808 120.961 8.8273 121.936 8.84771C125.181 8.90894 129.038 8.90486 133.508 8.83955C137.035 8.79057 138.867 11.5172 137.712 14.799C136.614 17.9216 134.573 20.0115 131.59 21.0605C130.569 21.4197 129.104 21.5912 127.189 21.5789C120.32 21.5258 113.907 21.5177 107.956 21.5544C107.637 21.5544 107.38 21.3013 107.376 20.9789C107.376 20.9136 107.388 20.8442 107.409 20.783L108.801 16.8889C108.935 16.5011 109.303 16.244 109.715 16.244H126.075C126.173 16.244 126.271 16.2358 126.365 16.2154C127.814 15.8766 128.532 15.3133 128.512 14.5337C128.496 13.7704 128.104 13.3826 127.34 13.3785C123.638 13.35 119.834 13.35 115.928 13.3826C114.772 13.3949 113.891 13.2234 113.287 12.8724C111.16 11.6397 110.87 9.33753 111.707 7.15376C112.854 4.1822 114.85 2.19027 117.695 1.18206C118.736 0.810613 120.291 0.639177 122.352 0.659586C128.022 0.716732 133.488 0.724895 138.753 0.688159C139.072 0.688159 139.333 0.941232 139.333 1.25961C139.333 1.329 139.321 1.3984 139.3 1.4637L137.969 5.15367C137.761 5.72104 137.357 6.00677 136.757 6.00269H122.805C122.022 6.00269 121.418 6.32923 120.993 6.98641Z" fill="#999595"/>
<path d="M149.705 6.39049C149.631 6.14558 149.488 6.02312 149.276 6.01904C147.027 5.99455 144.688 5.99047 142.263 6.0068C141.937 6.0068 141.672 5.74556 141.667 5.41901C141.667 5.34962 141.68 5.28431 141.704 5.21901L143.096 1.39435C143.247 0.978003 143.643 0.700439 144.088 0.700439H170.044C170.371 0.700439 170.636 0.961675 170.64 1.28822C170.64 1.35761 170.628 1.427 170.603 1.49231L169.261 5.26391C169.101 5.70882 168.681 6.0068 168.207 6.0068L159.203 5.99863C158.758 5.99863 158.362 6.27619 158.211 6.69662L153.125 20.7993C152.962 21.2442 152.537 21.5422 152.06 21.5422H145.362C144.684 21.5422 144.459 21.2238 144.692 20.587L149.696 6.70479C149.733 6.60274 149.737 6.49253 149.705 6.39049Z" fill="#999595"/>
<path d="M21.499 14.0399C21.4908 13.6276 21.352 13.4235 21.0826 13.4235C18.16 13.4072 15.3191 13.4072 12.5639 13.4235C11.8128 13.4276 11.1434 13.897 10.8903 14.6031L8.62489 20.8606C8.46978 21.2973 8.05344 21.5912 7.58811 21.5912H0.546964C0.244909 21.5871 0 21.3422 0 21.0443C0 20.9789 0.0122455 20.9136 0.0367364 20.8483C1.30618 17.4114 2.66543 13.6398 4.11448 9.53353C5.04105 6.90484 5.86558 5.1619 6.5799 4.3088C8.74327 1.73317 11.4699 0.696391 14.9068 0.720882C19.9887 0.757619 24.8134 0.769864 29.381 0.753537C32.0995 0.741291 33.8179 3.5904 32.9321 6.08847C31.3076 10.6805 29.5279 15.6073 27.589 20.8687C27.4298 21.3014 27.0176 21.5871 26.5604 21.5871H19.5928C19.2866 21.5871 19.0376 21.3341 19.0376 21.0279C19.0376 20.9626 19.0499 20.9014 19.0703 20.8402L21.4867 14.1337C21.4949 14.1052 21.499 14.0725 21.499 14.0399ZM23.8746 7.38241C23.8664 6.61911 23.2419 6.01092 22.4786 6.01908L14.7966 6.11296C14.0333 6.12113 13.4251 6.74565 13.4333 7.50895V7.60691C13.4455 8.37021 14.07 8.9784 14.8293 8.97024L22.5113 8.87636C23.2746 8.86819 23.8827 8.24367 23.8746 7.48037V7.38241Z" fill="#999595"/>
<path d="M65.0028 43.9311C65.1783 44.0658 65.3743 44.1311 65.5988 44.1311C71.0357 44.1311 76.4931 44.1311 81.9709 44.1311C82.2893 44.1311 82.5465 44.3883 82.5465 44.7026C82.5465 44.7679 82.5342 44.8373 82.5138 44.8985L81.126 48.7395C80.975 49.1599 80.5749 49.4375 80.1259 49.4375H60.1373C57.3004 49.4375 55.6187 46.4986 56.5861 43.927C57.3657 41.8657 58.125 39.7432 58.8678 37.5594C59.7903 34.8613 60.672 33.0204 61.5169 32.0326C62.7292 30.6162 64.1864 29.6325 65.8926 29.0815C66.9866 28.7263 68.4193 28.559 70.1867 28.5753C76.1992 28.6284 81.9913 28.6365 87.563 28.5916C87.8814 28.5916 88.1467 28.8447 88.1508 29.1631C88.1508 29.2325 88.1385 29.3019 88.114 29.3713L86.7426 33.1755C86.5793 33.6204 86.1589 33.9184 85.6813 33.9184H69.0683C68.6356 33.9184 68.2519 34.1878 68.105 34.5919L64.8804 43.5107C64.8232 43.6617 64.8763 43.8291 65.0028 43.927V43.9311Z" fill="#999595"/>
<path d="M106.576 42.0125C106.678 41.7268 106.531 41.4084 106.246 41.3064C106.184 41.286 106.123 41.2737 106.058 41.2737H97.6984C96.9269 41.2737 96.2412 41.7554 95.98 42.4819L93.7309 48.7149C93.5758 49.1516 93.1594 49.4414 92.6941 49.4414H85.657C85.3468 49.4414 85.0938 49.1884 85.0938 48.8781C85.0938 48.8128 85.106 48.7475 85.1305 48.6822C86.6897 44.4657 88.1551 40.4247 89.5266 36.5674C90.294 34.4081 91.0532 32.8978 91.8002 32.0325C93.9146 29.5875 96.6575 28.5344 100.045 28.5793C104.931 28.6486 109.617 28.6486 114.099 28.5793C116.254 28.5466 118.05 30.0242 118.254 32.1631C118.324 32.8774 118.132 33.8407 117.683 35.0571C115.871 39.9634 114.218 44.5065 112.728 48.6904C112.564 49.1394 112.14 49.4414 111.662 49.4414H104.695C104.388 49.4414 104.14 49.1924 104.14 48.8863C104.14 48.821 104.152 48.7598 104.172 48.6985L106.576 42.0125ZM108.976 35.2408C108.968 34.4775 108.344 33.8693 107.58 33.8775L99.9067 33.9713C99.1434 33.9795 98.5352 34.604 98.5433 35.3673V35.4653C98.5556 36.2286 99.1801 36.8368 99.9393 36.8286L107.613 36.7347C108.376 36.7266 108.985 36.102 108.976 35.3387V35.2408Z" fill="#999595"/>
<path d="M144.615 39.8371C146.484 40.2534 146.77 41.9106 146.158 43.4903C145.484 45.2332 144.86 46.9558 144.284 48.662C144.125 49.1273 143.688 49.4416 143.194 49.4416H136.431C135.765 49.4416 135.549 49.1273 135.774 48.5028L138.125 42.0168C138.227 41.7269 138.08 41.4086 137.79 41.3065C137.729 41.2861 137.668 41.2739 137.602 41.2739H129.21C128.455 41.2739 127.781 41.7474 127.524 42.4576L125.251 48.7436C125.1 49.1599 124.704 49.4375 124.259 49.4375C122.01 49.4375 119.683 49.4375 117.279 49.4375C117.095 49.4375 116.924 49.3804 116.789 49.2701C116.622 49.1354 116.589 48.9232 116.699 48.6252C119.038 42.1515 121.365 35.7103 123.675 29.3019C123.822 28.8937 124.21 28.6243 124.647 28.6202C131.647 28.608 138.815 28.6039 146.146 28.608C146.823 28.608 147.448 28.7753 148.015 29.11C149.717 30.1101 150.342 31.6775 149.88 33.8123C149.244 36.7471 147.484 38.6819 144.607 39.6166C144.345 39.7024 144.35 39.7718 144.615 39.833V39.8371ZM140.525 35.2532C140.517 34.4899 139.892 33.8817 139.129 33.8899L131.439 33.9715C130.675 33.9797 130.067 34.6042 130.075 35.3675V35.4573C130.084 36.2206 130.708 36.8288 131.471 36.8206L139.162 36.739C139.925 36.7308 140.533 36.1063 140.525 35.343V35.2532Z" fill="#999595"/>
<path d="M179.437 35.0409C177.996 39.0778 176.522 43.0943 174.983 47.1761C174.432 48.6374 172.881 49.4619 171.367 49.4619H148.733C148.431 49.4619 148.186 49.217 148.186 48.9109C148.186 48.8456 148.199 48.7803 148.219 48.7231L155.207 29.3386C155.366 28.8977 155.783 28.6079 156.252 28.6079C162.203 28.612 168.742 28.612 175.865 28.6079C177.975 28.6079 179.678 29.8692 179.971 31.9877C180.073 32.7387 179.898 33.7551 179.437 35.0409ZM158.248 43.3678C158.134 43.6821 158.297 44.0331 158.611 44.1474C158.677 44.1719 158.75 44.1841 158.819 44.1841L167.003 44.1433C167.257 44.1433 167.485 43.9801 167.571 43.7433L170.844 34.751C170.959 34.4367 170.795 34.0857 170.481 33.9714C170.412 33.9469 170.342 33.9347 170.269 33.9347L162.122 33.9673C161.869 33.9673 161.64 34.1265 161.55 34.3633L158.248 43.3678Z" fill="#999595"/>
</g>
<defs>
<clipPath id="clip0_613_213">
<rect width="180" height="48.8022" fill="white" transform="translate(0 0.659668)"/>
</clipPath>
</defs>
</svg>
