<svg width="150" height="80" viewBox="0 0 150 80" fill="none" xmlns="http://www.w3.org/2000/svg">
<path d="M20.5433 72.9171C21.4574 72.9171 22.2507 73.3672 22.6301 74.3842L23.9408 73.9174C23.3544 72.4336 22.061 71.7168 20.5433 71.7001C18.56 71.7001 16.8699 72.9171 16.8699 75.4344C16.8699 77.9518 18.56 79.1854 20.5433 79.1688C22.061 79.1688 23.3544 78.4352 23.9408 76.9515L22.6301 76.4847C22.2507 77.5017 21.4746 77.9518 20.5433 77.9518C19.3361 77.9518 18.3013 77.2016 18.3013 75.4178C18.3013 73.634 19.3361 72.8838 20.5433 72.9004V72.9171Z" fill="#3E373B"/>
<path d="M30.0265 71.7001C28.026 71.7001 26.3186 72.9171 26.3186 75.4344C26.3186 77.9518 28.0432 79.1688 30.0265 79.1688C32.0098 79.1688 33.7345 77.9518 33.7345 75.4344C33.7345 72.9171 32.0098 71.7168 30.0265 71.7001ZM30.0265 77.9684C28.8021 77.9684 27.75 77.2182 27.75 75.4344C27.75 73.6506 28.8021 72.9004 30.0265 72.9171C31.251 72.9171 32.303 73.6673 32.303 75.4344C32.303 77.2016 31.251 77.9684 30.0265 77.9684Z" fill="#3E373B"/>
<path d="M40.6827 71.6836C39.5445 71.6836 38.4925 72.2504 37.8889 73.5674V71.8003H36.3884V79.1023H37.8889V76.3682C37.8889 73.0173 39.4755 72.9006 40.1309 72.9006C41.0794 72.9006 41.2863 73.9175 41.2863 74.9845V79.1023H42.804V74.9845C42.804 73.6175 42.804 71.6836 40.6827 71.6836Z" fill="#3E373B"/>
<path d="M46.9073 73.9174C46.9073 73.0671 47.5971 72.7837 48.4594 72.7837C49.3217 72.7837 49.9426 73.0505 50.1151 73.8007L51.4775 73.4172C51.1498 71.8001 49.2183 71.7001 48.4594 71.7001C47.6661 71.7001 45.4241 71.8168 45.4241 73.9174C45.4241 76.9848 50.1841 75.1344 50.1841 76.7681C50.1841 77.6517 49.339 78.0185 48.4594 78.0185C47.5799 78.0185 46.8555 77.635 46.7176 76.8348L45.2861 77.1349C45.5276 79.0187 47.7006 79.1854 48.4594 79.1854C49.2873 79.1854 51.6672 79.0021 51.6672 76.7681C51.6672 73.6506 46.9073 75.6178 46.9073 73.9174Z" fill="#3E373B"/>
<path d="M56.6042 69.7496L55.1038 69.7829V71.7168H53.8621V72.8671H55.1038V77.2349C55.1038 78.6686 55.328 79.1021 57.2078 79.1021H57.8459V77.7684H57.2078C56.8457 77.7684 56.6042 77.6684 56.6042 77.2349V72.8671H57.8459V71.7168H56.6042V69.7662V69.7496Z" fill="#3E373B"/>
<path d="M62.0038 73.1338V71.7834H60.4861V79.0854H62.0038V76.3513C62.0038 73.684 62.8488 72.9504 64.5907 72.9504V71.6667H64.5562C63.3145 71.6667 62.4866 72.1002 62.0038 73.1338Z" fill="#3E373B"/>
<path d="M72.0373 74.5175C72.0373 77.8684 70.399 77.9851 69.8988 77.9851C68.9503 77.9851 68.7088 76.9682 68.7088 75.9012V71.7834H67.1912V75.9012C67.1912 77.2683 67.2257 79.2021 69.3297 79.2021C70.5024 79.2021 71.4682 78.6686 72.0373 77.4683V79.0854H73.555V71.7834H72.0373V74.5175Z" fill="#3E373B"/>
<path d="M79.868 72.9171C80.7821 72.9171 81.5754 73.3672 81.9548 74.3842L83.2655 73.9174C82.6792 72.4336 81.3857 71.7168 79.868 71.7001C77.8847 71.7001 76.1946 72.9171 76.1946 75.4344C76.1946 77.9518 77.8847 79.1854 79.868 79.1688C81.3857 79.1688 82.6792 78.4352 83.2655 76.9515L81.9548 76.4847C81.5754 77.5017 80.7993 77.9518 79.868 77.9518C78.6608 77.9518 77.626 77.2016 77.626 75.4178C77.626 73.634 78.6608 72.8838 79.868 72.9004V72.9171Z" fill="#3E373B"/>
<path d="M89.2987 72.9171C90.2127 72.9171 91.0061 73.3672 91.3855 74.3842L92.6962 73.9174C92.1098 72.4336 90.8164 71.7168 89.2987 71.7001C87.3154 71.7001 85.6252 72.9171 85.6252 75.4344C85.6252 77.9518 87.3154 79.1854 89.2987 79.1688C90.8164 79.1688 92.1098 78.4352 92.6962 76.9515L91.3855 76.4847C91.0061 77.5017 90.23 77.9518 89.2987 77.9518C88.0915 77.9518 87.0567 77.2016 87.0567 75.4178C87.0567 73.634 88.0915 72.8838 89.2987 72.9004V72.9171Z" fill="#3E373B"/>
<path d="M96.874 71.8003H95.3735V79.1023H96.874V71.8003Z" fill="#3E373B"/>
<path d="M96.8908 68.8826H95.3386V70.4997H96.8908V68.8826Z" fill="#3E373B"/>
<path d="M103.255 71.7001C101.254 71.7001 99.5469 72.9171 99.5469 75.4344C99.5469 77.9518 101.271 79.1688 103.255 79.1688C105.238 79.1688 106.963 77.9518 106.963 75.4344C106.963 72.9171 105.238 71.7168 103.255 71.7001ZM103.255 77.9684C102.03 77.9684 100.978 77.2182 100.978 75.4344C100.978 73.6506 102.03 72.9004 103.255 72.9171C104.479 72.9171 105.531 73.6673 105.531 75.4344C105.531 77.2016 104.479 77.9684 103.255 77.9684Z" fill="#3E373B"/>
<path d="M113.911 71.6836C112.773 71.6836 111.721 72.2504 111.117 73.5674V71.8003H109.617V79.1023H111.117V76.3682C111.117 73.0173 112.704 72.9006 113.359 72.9006C114.308 72.9006 114.515 73.9175 114.515 74.9845V79.1023H116.032V74.9845C116.032 73.6175 116.032 71.6836 113.911 71.6836Z" fill="#3E373B"/>
<path d="M122.205 71.7001C120.222 71.7001 118.532 72.9171 118.532 75.4344C118.532 77.9518 120.222 79.1854 122.205 79.1688C123.706 79.1688 125.085 78.4686 125.689 77.0515L124.395 76.5514C123.982 77.5183 123.119 77.9351 122.205 77.9518C121.136 77.9518 120.205 77.3683 119.998 76.0179H125.827C125.861 75.8346 125.879 75.6345 125.879 75.4344C125.879 72.9171 124.188 71.7168 122.205 71.7001ZM119.998 74.8176C120.222 73.4839 121.153 72.9004 122.205 72.9171C123.257 72.9171 124.188 73.4839 124.413 74.8176H119.998Z" fill="#3E373B"/>
<path d="M129.928 73.9174C129.928 73.0672 130.618 72.7838 131.48 72.7838C132.342 72.7838 132.963 73.0505 133.136 73.8007L134.498 73.4173C134.17 71.8002 132.239 71.7002 131.48 71.7002C130.687 71.7002 128.445 71.8169 128.445 73.9174C128.445 76.9849 133.205 75.1344 133.205 76.7682C133.205 77.6518 132.36 78.0185 131.48 78.0185C130.6 78.0185 129.876 77.6351 129.738 76.8349L128.307 77.135C128.548 79.0188 130.721 79.1855 131.48 79.1855C132.308 79.1855 134.688 79.0021 134.688 76.7682C134.688 73.6507 129.928 75.6179 129.928 73.9174Z" fill="#3E373B"/>
<path d="M149.94 0.797882H138.954V11.4174H149.94V0.797882Z" fill="#E62633"/>
<path d="M61.5496 29.5055H50.374V56.7961H61.5496V29.5055Z" fill="#3E373B"/>
<path d="M94.1458 15.3017H82.9702V56.7961H94.1458V15.3017Z" fill="#3E373B"/>
<path d="M75.657 15.185H50.374V25.9879H75.657V15.185Z" fill="#3E373B"/>
<path d="M21.4198 15.3185C9.60614 15.3185 0.0172466 24.571 0.0172466 36.0073C0.0172466 36.4408 0 67.9158 0 67.9158H11.2618V54.2122C14.2971 55.7959 17.7636 56.6962 21.437 56.6962C33.2679 56.6962 42.8396 47.427 42.8396 36.0073C42.8396 24.5876 33.2679 15.3185 21.437 15.3185H21.4198ZM21.4198 47.3103C14.9697 47.3103 9.72686 42.2423 9.72686 36.0073C9.72686 29.7723 14.9697 24.7043 21.4198 24.7043C27.8699 24.7043 33.1127 29.7557 33.1127 36.0073C33.1127 42.259 27.8871 47.3103 21.4198 47.3103Z" fill="#3E373B"/>
<path d="M122.726 47.2103C116.276 47.2103 111.033 42.1423 111.033 35.9073C111.033 29.6723 116.276 24.6043 122.726 24.6043C127.917 24.6043 132.28 27.8552 133.798 32.373H143.801C142.093 22.6371 133.315 15.2184 122.743 15.2184C110.929 15.2184 101.341 24.4709 101.341 35.9073C101.341 47.3437 110.929 56.5962 122.743 56.5962C133.332 56.5962 142.076 49.1775 143.801 39.4416H133.798C132.28 43.9428 127.917 47.2103 122.726 47.2103Z" fill="#3E373B"/>
</svg>
