<?xml version="1.0" encoding="UTF-8"?>
<svg id="Capa_1" data-name="Capa 1" xmlns="http://www.w3.org/2000/svg" viewBox="0 0 113.39 24.09">
  <defs>
    <style>
      .cls-1 {
        fill: #999595;
      }
    </style>
  </defs>
  <path class="cls-1" d="M81.15,11.92c0-1.57.03-3.18-3.8-3.18-1.9,0-4.03.37-4.13,2.66h2.85c.01-.35.2-.83,1.14-.83.49,0,1,.23,1,.75s-.42.65-.83.73c-1.57.3-4.53.21-4.53,2.78,0,1.71,1.28,2.46,2.83,2.46.99,0,1.93-.21,2.58-.97h.03c0,.26.03.52.11.77h3.12c-.34-.52-.37-1.21-.37-1.82v-3.34ZM78.21,14.19c-.05.85-.59,1.27-1.28,1.27-.55,0-.95-.38-.95-.75,0-.55.35-.72,1.04-.88.42-.08.82-.21,1.2-.39v.75Z"/>
  <rect class="cls-1" x="82.06" y="5.9" width="3.06" height="11.19"/>
  <rect class="cls-1" x="86.15" y="5.9" width="3.06" height="11.19"/>
  <path class="cls-1" d="M47.9,8.75c-3.01,0-4.37,2-4.37,4.26s1.36,4.28,4.37,4.28h0c3.01,0,4.37-2.03,4.37-4.28s-1.36-4.26-4.37-4.26ZM47.9,15.02c-1.16,0-1.31-1.16-1.31-2.02s.16-2,1.31-2h0c1.17,0,1.31,1.14,1.31,2s-.15,2.02-1.31,2.02Z"/>
  <path class="cls-1" d="M94.08,8.75c-2.54,0-4.24,1.93-4.24,4.29,0,2.71,1.93,4.25,4.5,4.25,1.82,0,3.51-.82,4.12-2.57h-2.86c-.25.39-.79.58-1.28.58-.96,0-1.48-.66-1.56-1.58h5.88c0-3.16-1.38-4.97-4.56-4.97ZM92.78,12.1c.15-.88.66-1.36,1.58-1.36.36,0,.71.14.96.39.25.26.39.61.38.97h-2.92Z"/>
  <path class="cls-1" d="M31.29,10.26c-1.56-.44-3.14-.61-3.2-1.41,0-.63.76-.75,1.22-.75.36-.01.71.09,1.01.28.15.09.27.22.34.38.07.16.09.34.06.51h3.21c-.09-2.73-2.22-3.65-4.61-3.65s-4.45,1.11-4.45,3.7c0,2.26,1.99,2.74,3.74,3.24,1.91.56,2.39.71,2.39,1.28,0,.83-.85,1.02-1.41,1.02-.63,0-1.38-.14-1.62-.82-.08-.23-.13-.48-.12-.73h-3.4c.03,3.56,3.6,4.02,4.85,4.02,2.46,0,5.1-.94,5.1-3.86,0-2.05-1.54-2.79-3.1-3.23Z"/>
  <path class="cls-1" d="M40.23,8.75c-1.31,0-1.98.46-2.51,1.08h-.03v-3.93h-3.06v11.19s3.06,0,3.06,0v-4.29c0-1.3.7-1.57,1.22-1.57.9,0,1,.66,1,1.6v4.26h3.06v-5.58c0-1.87-1.32-2.76-2.75-2.76Z"/>
  <path class="cls-1" d="M58.17,8.75c-1.5,0-1.96.58-2.35,1.1h-.03v-.89h-2.95v10.77h3.06v-3.53h.03c.25.35.58.63.96.82.38.19.8.29,1.23.27,2.69,0,3.42-2.32,3.42-4.23,0-2.04-1.1-4.31-3.37-4.31ZM57.13,15.03c-1.1,0-1.35-1.03-1.35-2.01s.24-2.02,1.35-2.02,1.34,1.06,1.34,2.02-.25,2.01-1.34,2.01Z"/>
  <path class="cls-1" d="M67.95,13.32h1.5c-.17.83-.97,1.24-1.76,1.24-2.07,0-2.49-1.83-2.49-2.88,0-.77-.08-3.26,2.26-3.26.39,0,.77.14,1.06.39.29.26.49.61.55,1h3.26c-.49-2.63-2.27-4.19-5.08-4.19-2.49,0-5.44,1.71-5.44,5.97,0,3.18,2.01,5.75,5.27,5.75,1.2,0,2.38-.42,3.14-1.41l.1,1.14h2.15v-6.16h-4.51v2.4Z"/>
  <path class="cls-1" d="M110.22,8.95l-1.3,4.67h-.03l-1.28-4.67h-2.34v-.08c-.29-.08-.59-.12-.9-.13-1.11,0-1.76.54-2.26,1.5h-.03v-1.3h-2.93v8.13s3.06,0,3.06,0v-3.21c0-1.73.65-2.46,1.85-2.46.41-.01.82.06,1.21.2v-.07l.42,1.16c.17.47,1.34,3.49,1.34,3.86s-.08.5-.29.61c-.21.11-.62.08-.93.08h-.72v2.48h1.39c1.19,0,2.43.01,3.23-1,.48-.61.77-1.53,1.01-2.25l2.67-7.51h-3.17Z"/>
  <path class="cls-1" d="M19.67,15.77c-.38-.19-.7-.47-.94-.82-.24-.35-.39-.76-.42-1.18-.63.06-1.24-.19-1.66-.66-.62-.71-.67-1.75-.12-2.51.27-.37.65-.64,1.08-.76-.1-.36-.12-.73-.06-1.1.22-1.34,1.62-2.25,2.94-2.02h0c.39.07.75.23,1.06.47-1.11-2.41-3.02-4.36-5.41-5.51-2.37-1.14-5.07-1.41-7.63-.75-2.56.66-4.81,2.2-6.35,4.35C.62,7.44-.14,10.08.02,12.74c.16,2.66,1.23,5.19,3.03,7.14,1.79,1.94,4.2,3.2,6.82,3.54,2.61.34,5.26-.25,7.48-1.68s3.89-3.59,4.71-6.13c-.71.47-1.62.53-2.39.15ZM15.07,10.65h0c-.22-.23-.45-.44-.69-.64-.67-.54-1.41-.99-2.21-1.31.51-1.48.95-2.53.95-2.53l.1-.27c.2.07.43.15.67.24.93.39,1.79.9,2.57,1.54-.09.39-.1.79-.02,1.18,0,.06.03.11.04.17-.64.36-1.13.93-1.4,1.61ZM6.79,12.78h0c-.31.09-.61.21-.9.37-.18-.33-.34-.68-.48-1.03-.17-.4-.3-.81-.39-1.23.47-.39.99-.71,1.56-.95.98-.4,2.04-.57,3.1-.48.3.02.59.06.89.11-.18.56-.35,1.15-.51,1.74-.13.45-.24.89-.37,1.34l-.19-.03c-.91-.14-1.83-.08-2.71.17ZM9.37,13.87h0c-.12.48-.22.92-.31,1.34-.41-.05-.83-.02-1.23.09-.12.03-.24.08-.35.13-.33-.38-.64-.78-.92-1.2.13-.06.26-.11.39-.16.67-.23,1.39-.32,2.1-.24.12.01.22.02.32.04ZM4.81,9.44h0c-.02-.46,0-.93.08-1.39.08-.52.22-1.04.41-1.53.36-.21.73-.39,1.11-.55,1.33-.53,2.76-.74,4.18-.61.48.03.96.11,1.43.21-.12.26-.56,1.34-1.05,2.76-.21-.04-.46-.09-.76-.13-1.27-.16-2.55-.02-3.75.41-.58.2-1.14.48-1.65.82ZM10.59,14.19c.67.24,1.3.61,1.83,1.09.29.27.56.57.78.89-.59.29-1.21.54-1.84.73-.17-.37-.43-.7-.74-.97-.12-.1-.24-.2-.37-.28.1-.49.22-.97.33-1.46ZM12.46,13.92h0c-.48-.38-1.01-.7-1.57-.94.11-.41.22-.84.34-1.26.17-.63.36-1.26.54-1.84.11.04.24.08.36.13,1.03.43,1.96,1.07,2.72,1.9.02.91.44,1.76,1.13,2.35-.6.57-1.27,1.07-1.99,1.49-.38-.71-.9-1.33-1.53-1.83ZM14.85,2.29c1.88.65,3.53,1.82,4.75,3.39-.24-.05-.48-.07-.72-.05-.38.03-.75.14-1.08.32-.34.18-.63.43-.86.73-.97-.82-2.07-1.47-3.26-1.93.03-.07.06-.14.09-.2.33-.8.74-1.53.69-1.47.14-.29.29-.56.39-.78ZM6.17,4.58h0c.45-.81,1.03-1.53.95-1.48.14-.2.27-.38.4-.55.55-.23,1.13-.41,1.71-.54.61-.14,1.22-.22,1.84-.24.69-.03,1.37,0,2.05.11.41.06.82.15,1.21.27-.13.13-.29.3-.48.51-.47.55-.89,1.14-1.25,1.76-.46-.12-.92-.21-1.39-.27-1.63-.22-3.28-.06-4.84.46l-.33.12s.07-.1.11-.14ZM4.88,4.2c.25-.22.51-.42.77-.61-.24.27-.46.55-.66.84-.26.36-.49.74-.69,1.14l-.03.07c-.65.42-1.24.93-1.76,1.5.6-1.12,1.4-2.12,2.37-2.95ZM1.72,14.74h0c-.36-1.59-.2-3.25.45-4.75.35-.81.85-1.55,1.47-2.18-.13.87-.13,1.75,0,2.61-.49.5-.89,1.08-1.2,1.71-.41.81-.66,1.7-.72,2.61ZM3.28,17.18c-.47-1.39-.42-2.9.16-4.25.15-.34.34-.66.55-.97.06.18.12.36.19.53.18.47.4.93.64,1.37-.44.39-.8.85-1.06,1.37h0c-.31.59-.48,1.26-.49,1.95ZM4.94,19.07h0c-.49-.96-.54-2.1-.12-3.1.16-.37.4-.72.69-1,.32.46.64.88.95,1.24-.08.11-.16.23-.22.35-.29.58-.34,1.25-.14,1.87-.53.24-.92.44-.92.45,0,0-.1.08-.24.19ZM7.73,21.51h-.01c-.11-.04-.21-.08-.31-.13h-.02c-.28-.13-.56-.26-.83-.41-.36-.26-.68-.56-.97-.9l.12-.03s.46-.24,1.04-.5c.31.34.69.62,1.11.81-.08.37-.14.63-.14.63s.01.28.02.52ZM10.64,21.92h0c-.46.09-.92.11-1.38.06-.21-.04-.43-.1-.64-.16.12-.16.23-.33.32-.51,0,0,.07-.26.15-.64.23.02.47,0,.7-.03.09-.01.18-.03.26-.05.37.57.64,1.06.64,1.06s.08.1.19.23c-.07.02-.15.05-.24.05ZM11.07,18.84c-.17-.03-.34-.03-.51-.01-.04,0-.04,0-.05.02-.21.29-.54.48-.9.52-.42.06-.85,0-1.24-.19-.39-.19-.71-.48-.93-.84-.21-.34-.25-.76-.1-1.14.15-.31.42-.54.75-.64.36-.12.74-.12,1.11-.02.37.06.72.21,1.02.44.3.23.54.53.69.88.2.43.15.86.22,1.01h-.05ZM13.98,19.99h0s-.03,0-.05,0c-.25.05-.49.16-.68.32-.04.02-.07.05-.1.09-.16.24-.36.45-.58.64-.2.17-.42.32-.65.45-.05-.24-.11-.41-.11-.41,0,0-.27-.48-.64-1.08.13-.12.25-.26.36-.4.01-.04.02-.08.02-.12,0-.24-.13-.46-.34-.58.06-.03.1-.07.14-.13.12-.18.2-.39.23-.61l.11-.03c.72-.21,1.42-.49,2.09-.82.02.09.05.18.09.27.35,1.14.08,2.14.09,2.41ZM14.58,20.37c-.09.09-.19.17-.29.24.01-.36-.08-.53-.2-.61.08-.1.15-.2.2-.31.32-.69.43-1.46.3-2.21-.02-.19-.06-.37-.1-.56.43-.24.85-.51,1.25-.81.3-.2.59-.43.86-.68.28,1.56-.13,2.86-.16,3.2-.02,0-.04,0-.05,0-.24.04-.56.36-.82.58-.05.04-.1.09-.13.15-.24.37-.53.7-.85,1ZM19.55,17.66c-.26.09-.64.52-.95.85-.06.06-.12.13-.17.2-.33.49-.72.94-1.15,1.34-.53.48-1.12.89-1.76,1.21.37-.35.69-.74.98-1.16.05-.09.09-.18.11-.27.18-.73.1-1.05-.05-1.15.1-.14.19-.29.26-.45h0c.43-.99.58-2.06.43-3.12,0-.08-.02-.16-.03-.24.19.05.39.08.59.1.02,0,.04,0,.07,0,.07.26.19.5.34.73.33.49.84.83,1.42.94.07.01.14.02.2.03-.09.48-.19.82-.21.99-.02,0-.04,0-.06.01ZM19.77,17.76s-.03-.05-.06-.08c.12-.19.23-.4.32-.61.05-.11.1-.24.16-.4h0c.09,0,.13-.03.1-.03.05,0,.1-.02.15-.03-.19.4-.42.78-.66,1.14Z"/>
</svg>