<?xml version="1.0" encoding="UTF-8"?>
<svg id="Capa_1" data-name="Capa 1" xmlns="http://www.w3.org/2000/svg" viewBox="0 0 113.39 17.01">
  <defs>
    <style>
      .cls-1 {
        fill: #999595;
      }
    </style>
  </defs>
  <polygon class="cls-1" points="63.85 1.86 59.97 1.86 59.97 15.45 69.84 15.44 69.84 12.11 63.85 12.11 63.85 1.86"/>
  <rect class="cls-1" x="92.55" y="1.78" width="3.98" height="13.64"/>
  <path class="cls-1" d="M107.94,9.44c.5-.35.92-.8,1.24-1.32.63-1.1.66-2.7.19-3.88-.47-1.15-1.11-2.21-3.46-2.46h-8.2l-.05.02v13.63h3.91l.02-4.57c.88-.03,1.84-.04,2.75.17,1.55.59,1.05,2.61,1.21,4.04h0c.1.36.16.37.16.37h4.18c-.03-.2-.17-.37-.19-.53,0-2.02.14-4.35-1.76-5.45ZM103.52,8.01h-1.87v-2.94h2.21c1.11,0,1.91.49,1.91,1.54s-.78,1.4-2.26,1.4Z"/>
  <path class="cls-1" d="M112.52,14.56c0-.07,0-.26-.01-.32-.02-.13-.11-.17-.16-.2.1-.06.16-.1.19-.23.03-.12,0-.23-.01-.29-.04-.16-.18-.22-.33-.23h-.78v1.43s.29,0,.29,0v-.56h.34c.1,0,.17.05.17.14,0,.1,0,.19,0,.29,0,.05.02.09.04.13h.31v-.05s-.05-.04-.05-.12ZM112.12,13.92h-.4v-.38h.39c.13,0,.18.06.18.16,0,0,0,0,0,.01,0,.1-.07.19-.17.2Z"/>
  <path class="cls-1" d="M83.03,1.79l-3.74,10.32h-4.81V1.86h-3.88v13.58h9.87s1.94,0,1.94,0c.19-.53.41-1.22.71-1.72h3.99s.62,1.71.62,1.71h4.29l-4.99-13.63h-3.98ZM83.86,10.72l1.15-3.33c.46,1.09.86,2.25,1.29,3.34h-2.44Z"/>
  <path class="cls-1" d="M41.44,6.88h0c-1.15-.48-2.64-.34-3.49-1.44-.16-.42.11-.81.47-1.01.57-.28,1.23-.31,1.82-.08.49.2,1.12.56,1.26,1.15h3.69c.06-.67-.08-1.35-.41-1.94-.44-.79-1.26-1.44-2.03-1.77-2.45-.9-5.75-.87-7.73,1.04-.91.87-1.4,2.08-1.13,3.4.41,1.83,2.03,2.94,3.93,3.45,1.27.46,2.72.46,3.73,1.44.15.26.25.56.08.84-.21.38-.55.67-.97.82-.96.32-2.01.08-2.75-.62-.41-.31-.5-.88-.6-1.31-1.63,0-2.25.02-3.78.02-.11.59.09,1.32.26,1.82.72,1.94,2.69,2.95,4.56,3.15,2.78.2,5.69-.37,7.04-3.07.44-1.07.47-2.59-.13-3.57-.83-1.49-2.39-1.97-3.82-2.33Z"/>
  <path class="cls-1" d="M54.84,10.08c0,1.48-.46,2.51-2.04,2.51-1.81,0-2.43-1.16-2.43-2.51V1.88h-4.03v8c0,4.72,2.31,6.05,6.46,6.05,4.44,0,6.08-1.64,6.08-6.03V1.88h-4.03v8.2Z"/>
  <path class="cls-1" d="M28.94,14.61c0-.07,0-.26-.01-.32-.02-.13-.11-.17-.15-.2.09-.06.15-.1.19-.23.03-.1.02-.2-.01-.29-.04-.15-.19-.23-.33-.23h-.79v1.45s.29,0,.29,0v-.57h.34c.1,0,.17.05.18.14,0,.1,0,.19,0,.29,0,.05.02.09.04.14h.31v-.06s-.06-.04-.06-.12ZM28.52,13.96h-.4v-.38h.39c.13,0,.18.06.18.16,0,0,0,0,0,.01,0,.1-.07.2-.18.2Z"/>
  <path class="cls-1" d="M111.99,12.58s0,0,0,0c-.78,0-1.4.64-1.4,1.42,0,0,0,0,0,0,0,.79.62,1.42,1.4,1.42.78,0,1.4-.64,1.39-1.42,0-.78-.61-1.42-1.39-1.43ZM111.99,15.14s0,0,0,0h0c-.62,0-1.11-.51-1.1-1.13,0,0,0,0,0,0,0-.62.5-1.13,1.11-1.13s1.1.51,1.1,1.13c0,.62-.48,1.12-1.1,1.13Z"/>
  <polygon class="cls-1" points="111.99 12.58 111.99 12.58 111.99 12.58 111.99 12.58"/>
  <path class="cls-1" d="M28.4,12.6c-.79,0-1.42.65-1.41,1.44,0,0,0,0,0,0,0,.79.63,1.44,1.41,1.44s1.41-.65,1.41-1.44c0-.79-.62-1.43-1.41-1.44ZM28.4,15.19c-.62,0-1.12-.52-1.12-1.14h0c0-.63.5-1.14,1.12-1.14s1.12.51,1.12,1.14-.5,1.14-1.12,1.14Z"/>
  <path class="cls-1" d="M26.46,3.92h0C21.76.38,15.35-.58,9.33.72,5.68,1.7,1,3.36.07,7.77c-.33,2.16.55,4.05,2.23,5.43,4.54,3.46,10.64,4.24,16.47,3.23,3.9-.87,8.8-2.33,9.93-6.94.3-2.19-.55-4.13-2.23-5.56ZM14.39,12.1l-4.51-2.61-.08.11v5.03c-.3.03-.66.03-.96,0v-5.03l-.22.03-4.23,2.53c-.19-.26-.35-.54-.47-.85l4.42-2.67-.22-.22-4.21-2.47c0-.28.27-.51.36-.82,1.54.73,3.02,1.8,4.54,2.53l.02-5.46h.95l.03,5.51.25-.06,4.29-2.56c.25.22.36.53.47.81-1.46.93-2.97,1.74-4.43,2.67,1.4.95,2.97,1.8,4.43,2.7l-.41.81ZM24.7,9.6c-.39.89-1.26,1.48-2.23,1.52-.69.03-1.21-.28-1.73-.65.44.56.8,1.24.74,2.05-.06.73-.36,1.32-.91,1.83-.52.43-1.2.63-1.87.56-1-.12-1.83-.83-2.12-1.8-.27-.93,0-1.85.61-2.53-.74.56-2.06.81-2.94.25-.88-.56-1.4-1.52-1.24-2.59.08-.87.77-1.77,1.6-2.05.92-.32,1.94-.1,2.64.56.46.56.77,1.18.71,1.97,0,.62-.27,1.15-.66,1.63.72-.48,1.87-.81,2.72-.34l.55.34c-.5-.7-.91-1.77-.5-2.73.17-.34.33-.67.63-.98-.55.47-1.26.71-1.98.68-.96-.06-1.81-.82-2.14-1.71-.28-.86-.1-1.8.47-2.5.66-.82,1.73-1.04,2.69-.76.55.23,1.16.65,1.43,1.24.25.56.36,1.32.17,1.97-.17.37-.33.73-.63,1.04l.03.03c.55-.45,1.18-.7,1.96-.65.6.14,1.21.34,1.65.93.58.7.74,1.83.36,2.7h0Z"/>
  <path class="cls-1" d="M18.71,3.05c-.6.08-1.15.59-1.35,1.18-.22.73,0,1.46.58,1.91.39.31.88.42,1.4.31.47-.12.87-.44,1.1-.87.28-.45.22-1.07.06-1.54-.33-.7-1.04-1.04-1.79-.98Z"/>
  <path class="cls-1" d="M24.01,7.94c-.22-.67-.91-1.09-1.6-1.15-.58.06-1.18.31-1.49.92-.22.42-.27,1.1-.05,1.55.27.56.85,1.01,1.48,1.01.6.03,1.13-.28,1.49-.79.25-.42.36-1.04.17-1.55h0Z"/>
  <path class="cls-1" d="M20.17,11.12c-.68-.66-1.77-.63-2.42.05-.37.42-.51,1-.39,1.55.09.5.41.94.85,1.18.51.26,1.12.25,1.62-.03.48-.31.79-.81.85-1.38,0-.51-.14-.95-.47-1.32-.02-.02-.03-.03-.05-.05Z"/>
  <path class="cls-1" d="M14.28,7.38c-.41.39-.52.98-.47,1.55.09.49.38.91.8,1.18.41.2.93.31,1.37.17.63-.25,1.16-.85,1.21-1.55-.03-.53-.14-1.01-.49-1.35-.63-.68-1.82-.68-2.42,0Z"/>
</svg>